<svg xmlns="http://www.w3.org/2000/svg" width="258.22" height="260.032" viewBox="0 0 258.22 260.032">
  <defs>
    <style>
      .cls-1 {
        fill: #00cece;
        fill-rule: evenodd;
      }
    </style>
  </defs>
  <path id="передняя_часть_" data-name="передняя часть " class="cls-1" d="M1481.68,991.184l-1.94,34.236a2.513,2.513,0,0,1-.98,4.71l-13.4,36.51a2.518,2.518,0,0,1,.85,1.88,2.546,2.546,0,0,1-2.55,2.54,2.654,2.654,0,0,1-.89-0.17l-7.95,10.39-0.57-.44,0.56,0.47-17.51,21.21a2.516,2.516,0,0,1-2.24,3.67,2.457,2.457,0,0,1-1.08-.26l-29.36,17.43a1.5,1.5,0,0,1,.02.22,2.535,2.535,0,0,1-2.55,2.52,2.562,2.562,0,0,1-2.1-1.1l-30.39,7.28a2.543,2.543,0,0,1-2.27,1.43,2.514,2.514,0,0,1-2.09-1.11l-30.87-.33,0.01-.72-0.34.64-0.6-.31-34.15-9.47a2.5,2.5,0,0,1-1.85.82,2.537,2.537,0,0,1-2.53-2.55,2.577,2.577,0,0,1,.24-1.07l-24.79-15.38a2.4,2.4,0,0,1-.8.14,2.537,2.537,0,0,1-2.55-2.53,2.44,2.44,0,0,1,.47-1.45l-17-18.63a2.379,2.379,0,0,1-.85.16,2.529,2.529,0,0,1-2.1-3.94l-14.59-27.22a1.655,1.655,0,0,1-.32.03,2.525,2.525,0,0,1-1.54-4.53l-4.56-28.27a2.534,2.534,0,0,1-1.52-2.33,2.561,2.561,0,0,1,1.52-2.33l0.22-5.42a2.546,2.546,0,0,1,.14-4.16l0.59-25.687a2.526,2.526,0,0,1,1.17-4.766l0.01,0,0.31-.4,14.12-34.825a2.49,2.49,0,0,1-.69-1.727,2.523,2.523,0,0,1,2.53-2.519,2.447,2.447,0,0,1,.34.034l24.72-26.647,1.17-1.97a2.522,2.522,0,0,1,4.27-2.485l33.37-18.573a2.523,2.523,0,0,1,4.72-1.76l37.54-5.994c0-.065-0.02-0.127-0.02-0.193a2.527,2.527,0,0,1,5.05-.158l36.42,5.733a2.548,2.548,0,0,1,4.91.939,2.61,2.61,0,0,1-.09.63l22.15,11.375a2.5,2.5,0,0,1,1.83-.8,2.534,2.534,0,0,1,2.52,2.546,2.413,2.413,0,0,1-.13.762l4.04,3.367a2.507,2.507,0,0,1,.82-0.147,2.543,2.543,0,0,1,2.53,2.546,2.693,2.693,0,0,1-.09.64l19.89,15.607a2.505,2.505,0,0,1,1.2-.319,2.538,2.538,0,0,1,1.71,4.416l18.2,31.346a2.488,2.488,0,0,1,1.26,3.215l7.19,28.413c0.08-.007.15-0.024,0.24-0.024A2.53,2.53,0,0,1,1481.68,991.184Zm-17.49,74.426,12.84-34.97-13.45,12.3a2.482,2.482,0,0,1-1.17,2.78Zm-234.77-57.47,11.74,30.27,2.54-39.758a2.448,2.448,0,0,1-.81-0.705l-12.27,7.013a2.589,2.589,0,0,1,.17.92A2.552,2.552,0,0,1,1229.42,1008.14Zm13.13,31.23a2.612,2.612,0,0,1,.69.39l21.98-11.14a2.4,2.4,0,0,1-.03-0.28,2.538,2.538,0,0,1,.67-1.71l-20.32-27.74a2.47,2.47,0,0,1-.41.065Zm74.79,63.85,41.12,12.95a2.58,2.58,0,0,1,1.21-1.35l-6.66-26.04a2.506,2.506,0,0,1-1.49-.65l-34.2,14.33a2.607,2.607,0,0,1,.05.48C1317.37,1103.03,1317.35,1103.12,1317.34,1103.22Zm49.39,25.5a2.9,2.9,0,0,1,.6-0.08,2.53,2.53,0,0,1,2.36,1.64l27.18-11.54-33.65-.88a2.517,2.517,0,0,1-.77,1.13Zm68.97-44.82-6.45-25.18a2.085,2.085,0,0,1-.35.04,2.325,2.325,0,0,1-.84-0.16l-26.43,34.26,33.06-6.87c0-.03-0.01-0.05-0.01-0.08A2.5,2.5,0,0,1,1435.7,1083.9ZM1286.16,933.217l30.16,19.128a2.519,2.519,0,0,1,1.21-.4l10.11-39.153a2.566,2.566,0,0,1-.64-0.554l-40.79,20.4v0.085A2.051,2.051,0,0,1,1286.16,933.217ZM1257.12,959.5l16.45,16.745a2.553,2.553,0,0,1,1.11-.4l8.14-40.736-0.03-.011-25.82,22.591a2.537,2.537,0,0,1,.26,1.1A2.765,2.765,0,0,1,1257.12,959.5Zm-10.33,38.639,20.32,27.738c0.07-.02.14-0.03,0.22-0.05l6.64-45.165a2.494,2.494,0,0,1-.6-0.381l-26.13,15.164a2.6,2.6,0,0,1,.21,1.009A2.478,2.478,0,0,1,1246.79,998.142Zm65.84,64.808,38.72,21.62a2.49,2.49,0,0,1,1.5-.8v-40.84a2.55,2.55,0,0,1-.98-0.8l-39.4,19.69a2.4,2.4,0,0,1,.18.92A1.492,1.492,0,0,1,1312.63,1062.95Zm43.11,23.4,41.51,7.24a2.456,2.456,0,0,1,1.39-1.33l-8.44-25.92h-0.05a2.512,2.512,0,0,1-2.15-1.22l-32.27,20.98a0.985,0.985,0,0,1,.02.17C1355.75,1086.29,1355.74,1086.32,1355.74,1086.35Zm47.95-62.88a2.732,2.732,0,0,1-.86.16l-11.3,38.09a2.442,2.442,0,0,1,.4.32l34.47-6.17a2.544,2.544,0,0,1,.52-1.21Zm24.42,30.36a2.569,2.569,0,0,1,.79-0.14,2.51,2.51,0,0,1,.55.07l14.29-42.56a2.389,2.389,0,0,1-.75-0.86l-37.67,11.23a2.574,2.574,0,0,1-.46,1.04ZM1365.45,989l35.97,29.977a2.675,2.675,0,0,1,1.12-.39l8.39-46.323a3.12,3.12,0,0,1-.28-0.3l-45.18,16.277a2.353,2.353,0,0,1,.03.266A2.7,2.7,0,0,1,1365.45,989Zm-9.07,52.317,32.49,20.35a2.383,2.383,0,0,1,1.27-.36l11.3-38.1a2.435,2.435,0,0,1-.64-0.6l-44.34,17.8c0,0.08.02,0.16,0.02,0.24A2.467,2.467,0,0,1,1356.38,1041.32Zm43.92-20.07a0.777,0.777,0,0,1-.02-0.16,2.6,2.6,0,0,1,.21-1l-35.74-29.784a2.492,2.492,0,0,1-1.4.7l-8.29,47.388a2.69,2.69,0,0,1,.85.68Zm-12.65,42.37a2.287,2.287,0,0,1,.23-0.86l-32.28-20.21a2.522,2.522,0,0,1-1.3.6v40.83a2.661,2.661,0,0,1,.9.73Zm-25.74-72.826a2.539,2.539,0,0,1-.98-0.827l-48.37,19.623a2.672,2.672,0,0,1,.09.64,2.734,2.734,0,0,1-.05.5l39.77,27.93a2.466,2.466,0,0,1,1.27-.51Zm-1.13-3.491-41.55-30.822a2.473,2.473,0,0,1-1.12.47l-6.95,50.979a2.158,2.158,0,0,1,.62.41l48.69-19.75c0-.028-0.01-0.055-0.01-0.083A2.465,2.465,0,0,1,1360.78,987.3Zm-9.38,53.437c0-.03-0.01-0.06-0.01-0.09a2.463,2.463,0,0,1,.14-0.81l-39.61-27.83a2.634,2.634,0,0,1-1.08.64v47.69a2.3,2.3,0,0,1,.71.33Zm-34.73-83.977a2.48,2.48,0,0,1-.83-0.611l-38.36,21.78a2.86,2.86,0,0,1,.04.417,2.538,2.538,0,0,1-.39,1.336l31.48,28.525a2.449,2.449,0,0,1,1.11-.47Zm-7.28,55.877a2.445,2.445,0,0,1-1.41-1.07l-37.74,16.27a2.734,2.734,0,0,1,.05.5,2.44,2.44,0,0,1-.2.97l38.61,31.34a2.392,2.392,0,0,1,.69-0.31v-47.7Zm-1.8-2.48a2.913,2.913,0,0,1,.15-0.78l-31.7-28.732a2.524,2.524,0,0,1-.63.191l-6.65,45.171a2.6,2.6,0,0,1,.8.55Zm-31.48-34.072a2.649,2.649,0,0,1,.73.542l38.37-21.788a2.426,2.426,0,0,1-.04-0.384,2.369,2.369,0,0,1,.21-0.994l-29.9-18.963a2.511,2.511,0,0,1-1.19.681Zm42.83-23.837a2.643,2.643,0,0,1,.58.418l48.91-17.753V934.9a2.249,2.249,0,0,1,.07-0.583l-37.82-21.847a2.517,2.517,0,0,1-1.64.682Zm1.27,1.708a2.062,2.062,0,0,1,.05.5,2.48,2.48,0,0,1-.16.863l41.72,30.951a2.282,2.282,0,0,1,.39-0.164l7.61-48.958a2.538,2.538,0,0,1-.97-0.847Zm43.47,32.126a2.452,2.452,0,0,1,1.23.818l45.2-16.284a1.8,1.8,0,0,1-.02-0.234,2.525,2.525,0,0,1,.32-1.222l-37.86-32.31a2.464,2.464,0,0,1-1.31.552Zm47.77-17.939a2.479,2.479,0,0,1,.81-0.258l0.32-38.919a2.52,2.52,0,0,1-1.42-1.107l-37.69,7.223a2.546,2.546,0,0,1-.1.558Zm0.84,4.741-8.32,45.953a2.536,2.536,0,0,1,1.2,1.26l37.52-11.19a2.554,2.554,0,0,1,.53-1.34l-29.6-34.867a2.535,2.535,0,0,1-1.02.215A2.71,2.71,0,0,1,1412.29,972.887Zm2.35-3.983,31.3-9.512a2.524,2.524,0,0,1,.67-1.6l-32.23-28.944a2.377,2.377,0,0,1-.35.124l-0.32,39.141A2.518,2.518,0,0,1,1414.64,968.9Zm31.63-8.1-31.16,9.47c0,0.038.01,0.073,0.01,0.111a2.569,2.569,0,0,1-.4,1.375l29.69,34.97a1.169,1.169,0,0,1,.2-0.06l2.98-44.748A2.55,2.55,0,0,1,1446.27,960.8Zm-1.07,50.876c-0.03,0-.06-0.01-0.09-0.01l-14.38,42.81,0.11,0.14,27.8-10.63a3.128,3.128,0,0,1-.04-0.44,2.526,2.526,0,0,1,.98-1.99l-14.16-29.9C1445.34,1011.66,1445.28,1011.68,1445.2,1011.68Zm14.1,33.61-27.9,10.66a2.4,2.4,0,0,1,.03.28,2.5,2.5,0,0,1-.85,1.87l6.48,25.3a0.985,0.985,0,0,1,.17-0.02,2.579,2.579,0,0,1,.39.04l21.91-37.93A1.434,1.434,0,0,1,1459.3,1045.29Zm-32.41,12.46a2.6,2.6,0,0,1-.28-0.45l-33.99,6.09a2.1,2.1,0,0,1,.05.43,2.5,2.5,0,0,1-1.09,2.07l8.54,26.25c0.07,0.02.13,0.04,0.19,0.06Zm-27.84,39.34a2.52,2.52,0,0,1-1.53-1l-34.09,20.32,35.42,0.93a2.543,2.543,0,0,1,1.57-2.27Zm-36.48,18.15,34.03-20.29-41.33-7.22a2.627,2.627,0,0,1-.84.75l6.67,26.08A2.457,2.457,0,0,1,1362.57,1115.24Zm-11.8-28.36a2.5,2.5,0,0,1-.09-0.61,2.337,2.337,0,0,1,.04-0.39l-38.63-21.57a2.694,2.694,0,0,1-.96.74l3.86,35.36a2.5,2.5,0,0,1,1.66.76Zm-41.07-21.66a2.539,2.539,0,0,1-1.63-1.01l-33.11,11.92a2.2,2.2,0,0,1,.04.36,2.331,2.331,0,0,1-.08.59l38.59,23.7a0.209,0.209,0,0,1,.06-0.04Zm-35.51,13.11a2.8,2.8,0,0,1-.49.36l11.46,25.72a1.861,1.861,0,0,1,.34-0.04,2.55,2.55,0,0,1,2.32,1.53l24.49-3.02a2.369,2.369,0,0,1,.23-1Zm0.16-3.52,33.25-11.97c0-.03-0.01-0.06-0.01-0.1a2.528,2.528,0,0,1,.19-0.96l-38.6-31.34a3.035,3.035,0,0,1-.47.25l4.29,43.33A2.479,2.479,0,0,1,1274.35,1074.81Zm-7.09-43.97a2.6,2.6,0,0,1-1.47-.88l-21.72,11.01a2.377,2.377,0,0,1,.13.76,2.543,2.543,0,0,1-.52,1.53l27.84,30.42Zm5.31-51.767a2.484,2.484,0,0,1-.12-0.724,2.441,2.441,0,0,1,.2-0.974l-16.35-16.636a2.515,2.515,0,0,1-1.6.586,2.582,2.582,0,0,1-.47-0.047l-7.96,33.054Zm-17.99-22.8,3.27-24.7-18.53,31.207,12.88-4.375A2.528,2.528,0,0,1,1254.58,956.272Zm1.41,0.352,25.62-22.416a2.554,2.554,0,0,1-.49-1.488,0.577,0.577,0,0,1,.02-0.129l-20.02-3.1a2.534,2.534,0,0,1-1.67,1.024Zm5.59-28.528,20.05,3.107a2.482,2.482,0,0,1,2.71-.929l9.19-27.591-0.09-.091-32.17,24.213a2.5,2.5,0,0,1,.32,1.216A0.192,0.192,0,0,1,1261.58,928.1Zm24.02,2.978c0.04,0.057.1,0.113,0.14,0.174l40.7-20.35a0.61,0.61,0,0,1-.01-0.135l-29.1-8.445a2.5,2.5,0,0,1-2.05,1.066,2.625,2.625,0,0,1-.44-0.043Zm12.2-30.13,28.97,8.411a2.517,2.517,0,0,1,2.18-1.257c0.02,0,.05.007,0.07,0.008l10.64-21.576a2.985,2.985,0,0,1-.39-0.389l-41.5,14.365a1.982,1.982,0,0,1,.04.346C1297.81,900.883,1297.8,900.913,1297.8,900.944Zm32.61,7.626a2.531,2.531,0,0,1,.64.661l40.67-8.855c0.01-.025.01-0.048,0.02-0.072l-28.85-13.8a2.554,2.554,0,0,1-1.63.6c-0.09,0-.17-0.017-0.26-0.025Zm1.07,2.052v0.008a2.286,2.286,0,0,1-.08.588l37.82,21.845a2.53,2.53,0,0,1,1.25-.645l2.79-29.22a2.525,2.525,0,0,1-1.39-1.372Zm40.43,21.934a2.55,2.55,0,0,1,1.25,1.114l37.64-7.215a2.438,2.438,0,0,1,.11-0.607l-35.08-23.063a2.513,2.513,0,0,1-1.13.549Zm39.8-7.914a2.512,2.512,0,0,1,.52-0.332l-3.33-20.554a2.528,2.528,0,0,1-2.37-1.856l-29.83-.635a3.127,3.127,0,0,1-.08.31Zm1.95-.556a2.517,2.517,0,0,1,2,1.525l23.08-3.254a3.23,3.23,0,0,1,.15-0.445l-28.21-18.81a3.136,3.136,0,0,1-.37.278Zm25.16-.278-23.01,3.246a2.449,2.449,0,0,1-.34.833l32.2,28.915-6.33-31.328c-0.04,0-.08.014-0.13,0.014A2.542,2.542,0,0,1,1438.82,923.808Zm10.4,33.313a2.523,2.523,0,0,1,1.25.887l18.13-2.047a2.462,2.462,0,0,1,.59-0.809l-26.37-29.713Zm0.49,4.613a2.487,2.487,0,0,1-.67.274l-2.98,44.742a2.534,2.534,0,0,1,.89.54l22.65-9.662a2.671,2.671,0,0,1-.14-0.805,2.525,2.525,0,0,1,1.06-2.056Zm20.76,37.1-22.8,9.726a2.776,2.776,0,0,1,.07.57,2.582,2.582,0,0,1-.97,2l14.16,29.91a1.355,1.355,0,0,1,.2-0.02,2.282,2.282,0,0,1,.27.02l9.6-41.889A2.481,2.481,0,0,1,1470.47,998.834Zm-7.68,67.316-1.8-20.08c-0.04,0-.08-0.01-0.11-0.01l-21.82,37.78,22.15-14.67a2.755,2.755,0,0,1-.09-0.65A2.536,2.536,0,0,1,1462.79,1066.15Zm-26.5,35.31,17.39-21.07,6.98-9.12-21.01,13.91a2.475,2.475,0,0,1-1.67,3.14l-1.87,13.04C1436.18,1101.39,1436.23,1101.43,1436.29,1101.46Zm-1.61-.3,1.83-12.83a2.476,2.476,0,0,1-.6-0.26l-30.01,26.88,26.68-10.91a2.45,2.45,0,0,1-.04-0.38A2.53,2.53,0,0,1,1434.68,1101.16Zm-32.3,19.93a2.514,2.514,0,0,1,1.68.91l25.67-15.23-25.83,10.57c0,0.02.01,0.05,0.01,0.08a2.526,2.526,0,0,1-1.8,2.41Zm0.69-5.55,31.25-27.99-32.26,6.7a2.186,2.186,0,0,1,.03.36,2.526,2.526,0,0,1-1.59,2.35l1.36,17.97A2.579,2.579,0,0,1,1403.07,1115.54Zm-3.52,8.08v-0.04a2.481,2.481,0,0,1,1.41-2.24l-0.33-1.52a2.439,2.439,0,0,1-1.07-.64l-24.04,10.19Zm-64.99,7.2,24.9,0.27-31.78-3.83Zm30.4-.52a2.665,2.665,0,0,1,.51-0.84l-4.34-9.89c-0.1.01-.2,0.03-0.3,0.03a2.532,2.532,0,0,1-2.27-1.43l-31.04,7.61Zm-37.75-1.65-2.25-1.17a2.644,2.644,0,0,1-.72.34Zm-1.29-3.97,30.79-7.54-39.94-12.58c-0.07.08-.14,0.16-0.22,0.24l7.11,18.06A2.516,2.516,0,0,1,1325.92,1124.68Zm-3.68-1.47-6.99-17.77a2.848,2.848,0,0,1-.42.04,2.516,2.516,0,0,1-2.14-1.19l-24.7,3.05c-0.01.04-.01,0.09-0.02,0.13l33.78,16.1A2.474,2.474,0,0,1,1322.24,1123.21Zm-0.58,3.9a2.633,2.633,0,0,1-.59-1.12l-13.3-2.74Zm-25.09-8.81a2.5,2.5,0,0,1,.87-0.17,2.55,2.55,0,0,1,2.48,2.03l19.88,4.09-31.61-15.07Zm-3.53-1.7-6.7-7.29a2.366,2.366,0,0,1-.84.16,2.529,2.529,0,0,1-2.52-2.42l-11.21-3.98a1.94,1.94,0,0,1-.15.24Zm-24.42-17.11a2.621,2.621,0,0,1,.94-0.18,2.53,2.53,0,0,1,2.52,2.33l9.94,3.53-27.22-20.82Zm15.05,5.12L1272.25,1079a2.547,2.547,0,0,1-2.28-1.95l-17.81,2.29c0,0.02.01,0.03,0.01,0.05a2.44,2.44,0,0,1-.2.97Zm-34.45-27.72a2.713,2.713,0,0,1,.41-0.04,2.556,2.556,0,0,1,2.08,1.09l18.38-2.37a2.607,2.607,0,0,1,.48-0.78l-28.03-30.64Zm-2.01-2.56-6.14-30.14a2.684,2.684,0,0,1-1.07-.56l-4.95,3.96a2.527,2.527,0,0,1,.1.67,2.492,2.492,0,0,1-.88,1.91Zm-19.23-61.17a2.54,2.54,0,0,1,.04,5l4.45,27.59a0.772,0.772,0,0,1,.15-0.02,2.513,2.513,0,0,1,1.66.63l4.95-3.97a2.84,2.84,0,0,1-.09-0.66,2.541,2.541,0,0,1,.98-1.99l-11.97-30.87Zm0.93-34.825-0.57,25.015a2.479,2.479,0,0,1,1.38.46l12.68-7.251c0-.034-0.01-0.067-0.01-0.1a2.507,2.507,0,0,1,.37-1.3l-12.91-17.116A2.45,2.45,0,0,1,1228.91,978.335Zm1.24-4.526a2.5,2.5,0,0,1,.73,3.183l12.96,17.193a2.568,2.568,0,0,1,1.04-.243l8.03-33.358a2.567,2.567,0,0,1-.5-0.717l-12.96,4.4a1.859,1.859,0,0,1,.04.334,2.538,2.538,0,0,1-3.95,2.09l-5.31,6.935Zm2.13-5.238,2.33-3.039a2.411,2.411,0,0,1-.19-0.93,2.523,2.523,0,0,1,1.76-2.387l3.54-12Zm12.64-29.7a2.634,2.634,0,0,1-.33-0.033l-6.89,23.369c0.08,0.025.16,0.042,0.24,0.074l19.3-32.506c-0.04-.041-0.07-0.087-0.11-0.13l-9.72,6.316A2.465,2.465,0,0,1,1244.92,938.869Zm1.72-4.359a1.27,1.27,0,0,1,.13.136l9.78-6.356a2.4,2.4,0,0,1-.02-0.269,2.53,2.53,0,0,1,2.53-2.533c0.02,0,.05.006,0.07,0.007l7.34-12.36Zm26.91-27.5a2.518,2.518,0,0,1-1.14-.284l-1.26,1.36L1260.99,925.2l30.77-23.154-15.69,2.571A2.532,2.532,0,0,1,1273.55,907.014Zm4.83-4.241,14.41-2.361a2.483,2.483,0,0,1,3.13-2l11.6-11.861Zm34.89-17.85a2.521,2.521,0,0,1-3,.89l-13.06,13.356,41.15-14.246h-25.09Zm2.89-1.448h22.81a2.535,2.535,0,0,1,3.63-1.048l8.01-4.453Zm39.6-5.975a2.505,2.505,0,0,1-3.23,1.063l-8.95,4.976c0.03,0.073.05,0.151,0.08,0.228l37.17-1.271a2.476,2.476,0,0,1,.49-0.972Zm25.14,6.443-37.19,1.271c-0.01.024-.01,0.046-0.02,0.068l28.76,13.754a2.5,2.5,0,0,1,1.76-.717,2.452,2.452,0,0,1,.74.124l6.61-13.485A2.519,2.519,0,0,1,1380.9,883.943Zm2.37,1.7a2.373,2.373,0,0,1-.41-0.042l-6.7,13.662a2.4,2.4,0,0,1,.35.55l30.05,0.64c0.02-.049.03-0.1,0.05-0.148l-21.78-15.218A2.5,2.5,0,0,1,1383.27,885.642Zm2.34-3.442a0.618,0.618,0,0,1,.04.131l0.65-.023Zm10.96,2.428a2.538,2.538,0,0,1-4.12-1.082l-6.76.233c-0.01.039-.03,0.077-0.04,0.116l21.86,15.27a2.524,2.524,0,0,1,2.84-.058l8.46-2.306a2.9,2.9,0,0,1-.03-0.3,2.19,2.19,0,0,1,.05-0.445Zm26.31,13.846a2.462,2.462,0,0,1-3.49-.329l-8.04,2.192a2.25,2.25,0,0,1,.11.364l14.89,1.082a2.8,2.8,0,0,1,.17-0.271Zm6.42,6.976a2.48,2.48,0,0,1-.75.129,2.532,2.532,0,0,1-2.52-2.366l-14.11-1.027,27.7,18.47Zm1.92,0.244,9.99,14.729a2.54,2.54,0,0,1,2.24,1.352l6.12-.453a2.608,2.608,0,0,1,.29-1Zm21.27,18.318a2.71,2.71,0,0,1-.41.04,2.511,2.511,0,0,1-2.19-1.3l-6.16.456a2.32,2.32,0,0,1-.23.826l26.01,29.3Zm18.12,35.468a2.521,2.521,0,0,1-2.19-2.041l-17.45,1.97a0.559,0.559,0,0,1,.02.128,2.523,2.523,0,0,1-.26,1.1l20.49,32.524Zm-7.85,82.14,0.06,0.06,13.69-12.53a2.543,2.543,0,0,1-.52-1.53,2.5,2.5,0,0,1,.94-1.95l-4.66-25.6Zm9.32-82.409-0.03.016,0.64,35.173a2.653,2.653,0,0,1,.68.3l4.89-5.085a2.376,2.376,0,0,1-.13-0.756,2.5,2.5,0,0,1,.95-1.96Zm7.02,31.621-4.79,4.976a2.463,2.463,0,0,1,.22,1.015,2.513,2.513,0,0,1-1.01,2.007l4.78,26.28h0.01l1.91-33.764A2.493,2.493,0,0,1,1479.1,990.832Z" transform="translate(-1225 -873.688)"/>
</svg>
