<svg xmlns="http://www.w3.org/2000/svg" width="254.09" height="254.47" viewBox="0 0 254.09 254.47">
  <defs>
    <style>
      .cls-1 {
        fill: #596c76;
        fill-rule: evenodd;
      }
    </style>
  </defs>
  <path id="задняя_часть_" data-name="задняя часть " class="cls-1" d="M1480.8,1015.76l0.5,0.52-6.91,6.61a2.144,2.144,0,0,1,.14.72,2.235,2.235,0,0,1-.41,1.27l3.56,3.56-0.51.51-3.56-3.56a2.2,2.2,0,0,1-1.26.4,1.983,1.983,0,0,1-.35-0.03l-9.7,27.84a2.158,2.158,0,0,1,.27.33l10.2-5.56,4.67-18.68,0.7,0.18-4.71,18.83-0.35-.09h0l0.33,0.15-8.69,19.2-0.52-.24,0.18,0.72-0.7.18-2.84-11.33c-0.02,0-.05.01-0.07,0.01a2.2,2.2,0,0,1-.86-0.18l-20.94,27.93-0.29-.22-0.05.36-21.42-2.6a2.176,2.176,0,0,1-2.07,1.52,2.272,2.272,0,0,1-.69-0.12l-4.77,19.07a2.193,2.193,0,0,1,.49.23l27.22-18.04,0.4,0.6-27.08,17.94a2,2,0,0,1,.27.44l13.31,1.38a2.16,2.16,0,0,1,2.08-1.59,2.133,2.133,0,0,1,1.24.4l34.35-34.69,0.51,0.5-34.35,34.7a2.167,2.167,0,1,1-3.91,1.4l-13.05-1.36c0,0.05.01,0.09,0.01,0.14a2.175,2.175,0,0,1-2.18,2.16,2.2,2.2,0,0,1-1.06-.28l-9.16,12.1-0.58-.44,9.17-12.12a2.026,2.026,0,0,1-.42-0.71l-27.34,11.21a2.581,2.581,0,0,1,.04.4,2.16,2.16,0,0,1-2.11,2.16l-6.27,10.33-0.3-.19-0.08.36-25.59-5.73a2.18,2.18,0,0,1-1.85,1.03,2.142,2.142,0,0,1-1.22-.37l-7.98,6.44-0.45-.56,7.9-6.38a2.15,2.15,0,0,1-.43-1.29,1.641,1.641,0,0,1,.02-0.23l-33.06-2.89a2.161,2.161,0,0,1-4.26-.51,1.931,1.931,0,0,1,.04-0.42l-33.15-15.19,0.3-.66,33.11,15.18a2.189,2.189,0,0,1,1.05-.92l-16.37-18.84a2.133,2.133,0,0,1-.91.21,2.161,2.161,0,0,1-1.94-1.23l-16.43,4.83-0.21-.7,16.44-4.83a1.751,1.751,0,0,1,.14-1.09l-24.43-17.04,8.29,22.46-0.68.25-0.04-.11-0.27.2-16.3-22.45,0.21-.16-1.66.3-0.13-.71,7.72-1.38a1.9,1.9,0,0,1,.05-1.04l-24.63-26.31,0.51-.48-1.02-.14,0.1-.71,5.09,0.67-11.64-32.42,0.69-.25,11.13,31.04-1.23-25.88a2.154,2.154,0,0,1-1.9-2.14,2.121,2.121,0,0,1,.08-0.57l-7.77-1.61,0.14-.71,7.95,1.65a2.151,2.151,0,0,1,1.5-.9l-1.72-14.53c-0.06,0-.13.02-0.2,0.02a2.192,2.192,0,0,1-1.78-.93l-5.23,4.11-0.14-.17-0.1.35-0.7-.21,5.27-17.337a2.157,2.157,0,0,1-1.14-3.518l-4.1-8.215,0.64-.323,4.03,8.062a2.08,2.08,0,0,1,1.65-.215l7.56-31.441a2.162,2.162,0,1,1,2.64-3.251l18.34-11.725a2.206,2.206,0,0,1-.13-0.73,2.172,2.172,0,0,1,1.38-2.027l-0.92-17.922a2.175,2.175,0,1,1,2.43-2.154v0.006l19.44-4.628-11.25-4.823,0.28-.666,0.61,0.258,18.26-11.1,0.08,0.138,0.02-.047-0.05-.119,0.11-.044,0.05-.115,0.12,0.049,34.85-13.651,0.13,0.337,0.23,0.281-0.7.567,9.02,9.625a2.149,2.149,0,0,1,3.37.238l22.16-8.8a2.3,2.3,0,0,1,.36-0.972l-8.17-4.235,0.34-.643,8.36,4.338a2.153,2.153,0,0,1,3.38,1.382l27.92-.329,0.01,0.725-26.93.317,30.12,11.144a2.183,2.183,0,0,1,1.22-.587l-3.67-10.392,0.68-.241,3.77,10.665a2.173,2.173,0,0,1,1.64,1.745l26.21,6.553-0.18.7-26.03-6.509a2.23,2.23,0,0,1-.31.8l24.04,16.448a2.14,2.14,0,0,1,.94-0.221,2.167,2.167,0,0,1,.24.024l2.31-9.534,0.35,0.085,0.27-.24,21.72,24.52c0.03,0,.06-0.011.1-0.011a2.166,2.166,0,0,1,2.16,2.167,2.12,2.12,0,0,1-.34,1.167l17.67,24.334-0.59.425-17.58-24.218a2.188,2.188,0,0,1-.54.308l10.67,28.467a2.268,2.268,0,0,1,.51-0.063,2.166,2.166,0,0,1,1.19.355l4.73-3.893,0.46,0.559-4.66,3.834a2.13,2.13,0,0,1-.55,3.134l11.84,22.766a2.1,2.1,0,0,1,.75-0.281l-5.8-29.3,0.71-.14,5.82,29.44a2.164,2.164,0,0,1-.37,4.3,2.06,2.06,0,0,1-.27-0.028l-3.73,29.844a2.2,2.2,0,0,1,.96.68Zm-16.66,51.72,8.16-18.03-9.44,5.15a2.333,2.333,0,0,1,.07.53,2.146,2.146,0,0,1-1.38,2.01Zm-3.22-14.5a2.126,2.126,0,0,1,.76.19l9.63-27.65a2.142,2.142,0,0,1-.58-0.46l-13.59,4.73a2.2,2.2,0,0,1-.56,1.45Zm0.38-91.241-18.76-17.164a2.308,2.308,0,0,1-.56.5L1446.27,969a2.209,2.209,0,0,1,.37-0.037,2.175,2.175,0,0,1,1.73.862l12.43-6.353a1.833,1.833,0,0,1-.03-0.333A2.119,2.119,0,0,1,1461.3,961.739Zm-12.27-32.1-21.14-12.868a2.335,2.335,0,0,1-.43.532l13.18,23.778a1.938,1.938,0,0,1,.2-0.021,2.16,2.16,0,0,1,1.34.47l7-9.791a2.116,2.116,0,0,1-.36-1.189A2.145,2.145,0,0,1,1449.03,929.642Zm-30.86-.481-17.47-15.239a2,2,0,0,1-.39.187l0.31,20.109a2.165,2.165,0,0,1,1.58,1.142l15.97-4.824a2.311,2.311,0,0,1-.12-0.7A2.15,2.15,0,0,1,1418.17,929.161Zm-75.78-17.982-25.05-2.137a2.149,2.149,0,0,1-1.32,1.791l3.46,17.594a2.125,2.125,0,0,1,1.63.34l21.33-16.873a2.321,2.321,0,0,1-.07-0.532A1.114,1.114,0,0,1,1342.39,911.179Zm-30.55-14.192,3.15,9.7c0.07-.007.14-0.021,0.21-0.021a2.159,2.159,0,0,1,.96.234l20.12-13.416c-0.01-.044-0.03-0.086-0.04-0.132l-23.26,1.258a2.337,2.337,0,0,1,.05.463A2.143,2.143,0,0,1,1311.84,896.987Zm-59.91,71.845,10.32,17.5c0.02,0,.04-0.007.06-0.007a2.075,2.075,0,0,1,.45.049l8.67-25.672a2.174,2.174,0,0,1-.86-0.841l-18.52,7.348a2.049,2.049,0,0,1,.12.656A2.1,2.1,0,0,1,1251.93,968.832Zm-6.42,27.6,10.06,19.445c0.05-.02.09-0.04,0.15-0.06l5.76-25.323a2.155,2.155,0,0,1-1.26-1.432l-12.83,4.723a1.979,1.979,0,0,1,.06.489A2.165,2.165,0,0,1,1245.51,996.435Zm44.61,100.895,28.33,7.64a2.435,2.435,0,0,1,.34-0.38l-14.58-18.06a2.118,2.118,0,0,1-.62.1,2.207,2.207,0,0,1-1.33-.46l-12.33,9.58a2.108,2.108,0,0,1,.27,1.03A2.518,2.518,0,0,1,1290.12,1097.33Zm93.32-.29-19.62-11.6a2.146,2.146,0,0,1-1.92,1.19,1.994,1.994,0,0,1-.77-0.15l-6.17,18.52a2.074,2.074,0,0,1,.77.7l27.58-7.44a2.453,2.453,0,0,1-.04-0.39A2.088,2.088,0,0,1,1383.44,1097.04Zm29.55-15.43-19.59-7.84a2.105,2.105,0,0,1-1.44.56c-0.04,0-.07-0.01-0.11-0.01l-4.89,22a2.073,2.073,0,0,1,.37.47l25.67-14.43a2.024,2.024,0,0,1-.04-0.43A1.655,1.655,0,0,1,1412.99,1081.61Zm40.8-53.65-9.75-21.64a2.623,2.623,0,0,1-.46.19l-7.86,24.51a2.124,2.124,0,0,1,.55.71l16.53-1.93v-0.01A2.193,2.193,0,0,1,1453.79,1027.96Zm-54.21-113.713a2.168,2.168,0,0,1-1.8-.957l-21.22,6.973a2.251,2.251,0,0,1,.18.864,2.127,2.127,0,0,1-.14.759l22.25,12.849a2.146,2.146,0,0,1,1.05-.514l-0.31-19.976Zm-49,21.992,24.86,10.253a2.149,2.149,0,0,1,1.09-1.221l-2.11-21.992a2.168,2.168,0,0,1-1.76-1.115l-22.07,12.871a1.892,1.892,0,0,1,.09.584A2.123,2.123,0,0,1,1350.58,936.239Zm-4.25-.721-24.32-4.561a2.163,2.163,0,0,1-1.65,1.706l7.25,18.908c0.09-.009.17-0.025,0.25-0.025a2.152,2.152,0,0,1,1.13.323l17.64-15.162a2.131,2.131,0,0,1-.31-1.088C1346.32,935.584,1346.33,935.552,1346.33,935.518Zm-82.55,54.569,11.89,18.293a2.079,2.079,0,0,1,1.13-.33,2.2,2.2,0,0,1,.58.09l7.22-25.12a2.181,2.181,0,0,1-.8-1.14l-19.48,5.781a2.1,2.1,0,0,1,.17.832A2.164,2.164,0,0,1,1263.78,990.087Zm-5.58,29.1,14.83,19.46a1.316,1.316,0,0,1,.3-0.09l2.91-26.23a2.21,2.21,0,0,1-1.33-1.02l-16.29,6a2.247,2.247,0,0,1,.07.52A2.153,2.153,0,0,1,1258.2,1019.19Zm47.49,65.84,24.75,3.71a2.111,2.111,0,0,1,.56-1.05l-12.32-14.9a2.207,2.207,0,0,1-1.33.46,2.131,2.131,0,0,1-1.06-.29l-10.78,10.49a2.2,2.2,0,0,1,.26,1.01A2.121,2.121,0,0,1,1305.69,1085.03Zm84.34-13.84-20.61-10.76a2.173,2.173,0,0,1-1.74.87h-0.07l-4.52,21.36a2.142,2.142,0,0,1,.53.51l26.23-10.56a2.315,2.315,0,0,1-.05-0.46A2.225,2.225,0,0,1,1390.03,1071.19Zm21.71-38.71-13.36-11.88a2.173,2.173,0,0,1-1.24.47l-2.75,22.91a2.213,2.213,0,0,1,1,.64l16.3-10.37a2.186,2.186,0,0,1-.17-0.85A2.046,2.046,0,0,1,1411.74,1032.48Zm30.09-29.87-14.97-18.791a2.176,2.176,0,0,1-1.59.693c-0.03,0-.06-0.008-0.09-0.01l-3.97,24.388a2.174,2.174,0,0,1,.93.57l18.83-4.39a2.016,2.016,0,0,1-.11-0.65A2.177,2.177,0,0,1,1441.83,1002.61ZM1355.49,962l19.8,11.139a2.145,2.145,0,0,1,1.14-.54l0.62-23.26a2.186,2.186,0,0,1-1.25-.757L1355.56,960.1A2.119,2.119,0,0,1,1355.49,962Zm-4.09-1.187-21.47-6.441a2.123,2.123,0,0,1-.94,1.212l5.64,16.616c0.04,0,.07-0.011.11-0.011a2.174,2.174,0,0,1,1.79.94L1351.6,961.9a2.168,2.168,0,0,1-.21-0.917C1351.39,960.926,1351.4,960.869,1351.4,960.811Zm-25.69-7.375-23.25.62a2.174,2.174,0,0,1-.83,1.4l9.78,18.939c0.05,0,.1-0.014.14-0.014a2.123,2.123,0,0,1,1.02.262l13.75-19.372a2.2,2.2,0,0,1-.64-1.544A2.756,2.756,0,0,1,1325.71,953.436Zm-27.37,106.584,17.32,9.68a2.15,2.15,0,0,1,1.52-.79l1.44-16.76a2.2,2.2,0,0,1-1.31-.96l-18.81,7.53a2.71,2.71,0,0,1,.04.4A2.115,2.115,0,0,1,1298.34,1060.02Zm93.47-14.86-17.91-12.45a2.194,2.194,0,0,1-1.54,1.02l-3.9,23.36a2.3,2.3,0,0,1,.88.63l22.37-11.03a2.118,2.118,0,0,1-.1-0.62A2.285,2.285,0,0,1,1391.81,1045.16Zm3.18-26.96-18.61-13.95a2.345,2.345,0,0,1-.91.48l-2.76,24.81a2.078,2.078,0,0,1,1.07.76l21.14-10.89a2.734,2.734,0,0,1-.06-0.5A2.126,2.126,0,0,1,1394.99,1018.2Zm-18.16-14.52,18.52,13.88a2.149,2.149,0,0,1,1.68-.81h0.01l3.26-22.241a2.185,2.185,0,0,1-1.17-.974l-22.05,8.7a2.579,2.579,0,0,1,.04.39A2.131,2.131,0,0,1,1376.83,1003.68Zm-22.05-15.652,18.98,12.762a2.243,2.243,0,0,1,.96-0.33l1.83-23.552a2.111,2.111,0,0,1-1.51-.831l-20.06,10.634a1.993,1.993,0,0,1,.04.347A2.116,2.116,0,0,1,1354.78,988.028Zm18.68,16.192-22.46,8.61a1.526,1.526,0,0,1,.03.3,2.18,2.18,0,0,1-.43,1.3l19.63,15.95a2.164,2.164,0,0,1,1.77-.95l2.74-24.65A2.236,2.236,0,0,1,1373.46,1004.22Zm-31.66,37-17.8-15.73a2.129,2.129,0,0,1-1.56.68l-2.98,21.76a2.112,2.112,0,0,1,1.59,1.07l20.65-6.31a2.341,2.341,0,0,1-.09-0.59A2.172,2.172,0,0,1,1341.8,1041.22Zm5.26-29.29-17.8-13.582a2.179,2.179,0,0,1-1.05.276,2.052,2.052,0,0,1-.33-0.034l-4.68,23.37a2.278,2.278,0,0,1,.74.47l22.84-8.76a1.905,1.905,0,0,1-.08-0.54A2.123,2.123,0,0,1,1347.06,1011.93Zm-22.69,11.11a2.182,2.182,0,0,1,.23.95,2.115,2.115,0,0,1-.2.9l17.81,15.72a2.2,2.2,0,0,1,1.58-.68,2.315,2.315,0,0,1,.46.05l4.02-24.76a2.223,2.223,0,0,1-1.2-.88Zm-1.88-1.22,4.69-23.463a2.2,2.2,0,0,1-.83-0.8l-21.68,5.272a0.777,0.777,0,0,1,.02.16,2.123,2.123,0,0,1-.82,1.67l16.7,18.24a2.136,2.136,0,0,1,1.86-1.09C1322.45,1021.81,1322.47,1021.82,1322.49,1021.82Zm-17.98-19.7,21.57-5.242a1.955,1.955,0,0,1-.05-0.421,2.239,2.239,0,0,1,.11-0.637l-13.5-17.4a2.19,2.19,0,0,1-.94.282l-7.68,22.73A2.228,2.228,0,0,1,1304.51,1002.12Zm22-7a2.122,2.122,0,0,1,2.3-.736l4.93-18.087a2.194,2.194,0,0,1-1.08-1.3l-18.94,1.722a2.2,2.2,0,0,1-.52,1.244Zm2.96-.423a2.117,2.117,0,0,1,.78,1.02l20.59-7.869a2.076,2.076,0,0,1-.16-0.788,2.191,2.191,0,0,1,.23-0.956L1336.46,975.7a2.174,2.174,0,0,1-1.72.853,2.325,2.325,0,0,1-.31-0.031Zm0.92,1.743v0.019a2.136,2.136,0,0,1-.55,1.427l17.72,13.516a2.162,2.162,0,0,1,1.31-.45,3.163,3.163,0,0,1,.32.03l3.38-21.784a2.155,2.155,0,0,1-1.35-.722ZM1349,1015.3l-4.06,24.96a2.225,2.225,0,0,1,.88,1.08l24.08-9.38a2.206,2.206,0,0,1-.04-0.37,2.247,2.247,0,0,1,.07-0.52l-19.85-16.13A2.24,2.24,0,0,1,1349,1015.3Zm22.62,18.41a2.114,2.114,0,0,1-1.47-1.07l-24.18,9.42v0.04a2.2,2.2,0,0,1-.15.77l20.21,14.84a2.162,2.162,0,0,1,1.65-.77c0.02,0,.05.01,0.07,0.01Zm-26.17,9.78a2.168,2.168,0,0,1-1.21.73l-2.75,21.13a2.185,2.185,0,0,1,1.16.81l22.86-7.11a2.193,2.193,0,0,1,.14-0.72Zm-1.94.75a2.195,2.195,0,0,1-1.5-.89l-20.7,6.33a2.328,2.328,0,0,1,.04.38,2.086,2.086,0,0,1-.28,1.03l18.58,14.56a2.271,2.271,0,0,1,1.12-.38Zm-22.88,7.42a2.189,2.189,0,0,1-1.28.55l-1.45,16.76a2.179,2.179,0,0,1,1.52,1.44l19.32-3.27a2.226,2.226,0,0,1,.39-0.98Zm-3.08-3.04a2.141,2.141,0,0,1,1.18-.68l3-21.89a2.193,2.193,0,0,1-1.4-1.54l-21.33,7.51a2.137,2.137,0,0,1,.27,1.03,2.079,2.079,0,0,1-.27,1.03Zm2.74-24.86a0.2,0.2,0,0,1,.01-0.08l-17.08-18.66a1.9,1.9,0,0,1-.63.12l-5.15,25.78a2.214,2.214,0,0,1,1.08.51Zm-16.89-22.75,7.56-22.386a2.152,2.152,0,0,1-1.45-1.362l-21.52,3.635a2.18,2.18,0,0,1,.04.364,2.152,2.152,0,0,1-.79,1.662l14.11,18.227A2.193,2.193,0,0,1,1303.4,1001.01Zm-15.66-20.8,21.63-3.656h0a2.166,2.166,0,0,1,1.31-1.984l-9.69-18.773a1.969,1.969,0,0,1-1.34,0l-12.62,23.655A2.1,2.1,0,0,1,1287.74,980.205Zm25.41-5.123a2.087,2.087,0,0,1,.5.911l18.92-1.72a2.177,2.177,0,0,1,1.35-1.923l-5.6-16.493a2.176,2.176,0,0,1-.46.05,2.114,2.114,0,0,1-.94-0.223Zm23.69-1.281a2.12,2.12,0,0,1,.08.566,2.206,2.206,0,0,1-.12.683l14.53,10.462a2.2,2.2,0,0,1,1.22-.591l0.61-21.8a2.193,2.193,0,0,1-1.16-.623Zm13.05,37.419a2.16,2.16,0,0,1,.9.92l22.22-8.53a2.108,2.108,0,0,1,.21-2.31l-18.87-12.685a2.107,2.107,0,0,1-1.05.561Zm4.85-25.2,19.96-10.582a2,2,0,0,1-.13-0.691,2.235,2.235,0,0,1,.27-1.03l-19.79-11.135a2.2,2.2,0,0,1-1.17.554l-0.61,21.8A2.143,2.143,0,0,1,1354.74,986.019Zm20.7,14.481a2.18,2.18,0,0,1,1.39,1.05l22.05-8.695a2.376,2.376,0,0,1-.04-0.38,2.135,2.135,0,0,1,.35-1.17l-20.62-15.393a2.165,2.165,0,0,1-1.29.938Zm3.06-27.019,21.47-10.268a2,2,0,0,1-.04-0.426,2.076,2.076,0,0,1,.08-0.56l-20.95-13.554a2.129,2.129,0,0,1-1.28.675l-0.62,23.26A2.179,2.179,0,0,1,1378.5,973.481Zm0.31,0.654a2.074,2.074,0,0,1,.1.611,1.868,1.868,0,0,1-.06.475l20.84,15.551a2.172,2.172,0,0,1,1.33-.464c0.02,0,.03,0,0.05,0l0.62-25.4a2.174,2.174,0,0,1-1.45-1.025Zm22.21,20.507h-0.01l-3.26,22.239a2.165,2.165,0,0,1,.98.7l19.69-6.85a2.208,2.208,0,0,1,.51-1.19l-16.41-15.5A2.163,2.163,0,0,1,1401.02,994.642Zm1.81-3.381,20.29-8.607a1.587,1.587,0,0,1-.03-0.309,2.028,2.028,0,0,1,.03-0.351l-19.66-17.516a2.188,2.188,0,0,1-1.05.446l-0.62,25.528A2.193,2.193,0,0,1,1402.83,991.261Zm0.3,0.662a2.5,2.5,0,0,1,.08.552,2.167,2.167,0,0,1-.25.982l16.54,15.623a2.08,2.08,0,0,1,.99-0.29l3.98-24.435a2.209,2.209,0,0,1-1.13-1.01Zm18.68,20.8a2.133,2.133,0,0,1-1.24.4c-0.03,0-.06-0.01-0.1-0.01l-6.08,18.25a2.192,2.192,0,0,1,1.41,1.57l16.46-.87a2.179,2.179,0,0,1,.74-1.09Zm-2.05.24a2.225,2.225,0,0,1-1.29-1.48l-19.39,6.75a2.157,2.157,0,0,1,.12.68,2.129,2.129,0,0,1-.34,1.15l13.29,11.82a2.18,2.18,0,0,1,1.52-.64Zm-23.34,8.02a2.129,2.129,0,0,1-1.21-.9l-21.1,10.86a2.1,2.1,0,0,1,.07,1.08l18.04,12.54a2.137,2.137,0,0,1,1.45-.66Zm-4.39,26.36-22.32,11a2.3,2.3,0,0,1,.15.78,2.076,2.076,0,0,1-.11.66l20.7,10.81a2.185,2.185,0,0,1,1.25-.59l1.29-21.91A2.089,2.089,0,0,1,1392.03,1047.34Zm-25.13,13.81a2.144,2.144,0,0,1-1.29-1.37l-22.64,7.04a2.077,2.077,0,0,1-.07,1.46l17.56,14.58a2.069,2.069,0,0,1,1.95-.49Zm-24.39,7.74a2.147,2.147,0,0,1-1.62.73c-0.04,0-.09-0.01-0.13-0.01l-6.4,18.33a2.122,2.122,0,0,1,.37.96l25.03-4.69a2.093,2.093,0,0,1,.25-0.79Zm-2.46.56a2.18,2.18,0,0,1-1.3-1.58l-19.22,3.26a2.212,2.212,0,0,1-.35,1.13l12.4,15a2.146,2.146,0,0,1,2.21.12Zm-24.33,3.06a2.184,2.184,0,0,1-.55-1.44,2.069,2.069,0,0,1,.14-0.74l-17.37-9.71a2.193,2.193,0,0,1-.93.58l6.45,21.11c0.04,0,.09-0.01.13-0.01a2.132,2.132,0,0,1,1.47.58Zm-17.48-14.47,18.8-7.52a2.236,2.236,0,0,1-.05-0.46,2.312,2.312,0,0,1,.16-0.83l-18.6-14.58a2.151,2.151,0,0,1-1.17.54l-0.61,21.79A2.173,2.173,0,0,1,1298.24,1058.04Zm3.63-52.99a2.183,2.183,0,0,1-1.33-1.14l-21.58,6.08a1.942,1.942,0,0,1,.02.24,2.195,2.195,0,0,1-.63,1.54l17.55,19.47a2.242,2.242,0,0,1,.8-0.32Zm-6.84,28.67-19.09,6.17a2.042,2.042,0,0,1,.14.75,2.1,2.1,0,0,1-.27,1.02l19.34,15.65a2.081,2.081,0,0,1,.89-0.33l0.61-21.8A2.165,2.165,0,0,1,1295.03,1033.72Zm-0.11-.72a2.151,2.151,0,0,1,.45-1.27l-17.62-19.54a2.559,2.559,0,0,1-.79.21l-2.9,26.09a2.094,2.094,0,0,1,1.5.76Zm-16.87-24.55a2.034,2.034,0,0,1,.71.85l21.59-6.09a1.635,1.635,0,0,1-.02-0.22,2.117,2.117,0,0,1,.48-1.35l-14.2-18.351a2.24,2.24,0,0,1-.75.139,2.081,2.081,0,0,1-.59-0.093Zm7.69-29.344c0.04,0,.08-0.012.12-0.012a2.061,2.061,0,0,1,.5.065l12.65-23.711a2.1,2.1,0,0,1-.68-0.888l-23.73,4.007a1.879,1.879,0,0,1,.02.238,2.153,2.153,0,0,1-.72,1.605Zm-11.34-21.241,23.77-4.013c0-.043-0.01-0.083-0.01-0.125a2.174,2.174,0,0,1,1.83-2.147l-8.31-18.863-0.03,0a2.144,2.144,0,0,1-.7-0.124l-16.8,24.875A2.051,2.051,0,0,1,1274.4,957.865Zm26.39-6.265c0.06,0.013.12,0.036,0.18,0.054l17.57-19.416a2.141,2.141,0,0,1-.82-1.684h-23.89a2.16,2.16,0,0,1-1.42,2.022Zm-7.1-21.77h24.16a2.17,2.17,0,0,1,.94-1.14l-3.48-17.705c-0.04,0-.07.011-0.11,0.011a2.144,2.144,0,0,1-1.59-.7l-20.89,18.39A2.13,2.13,0,0,1,1293.69,929.83ZM1301.63,952a2.131,2.131,0,0,1,.82,1.334l23.5-.627a2.152,2.152,0,0,1,.96-0.934l-7.31-19.079a2.147,2.147,0,0,1-.41-0.1Zm27.91,0.353a2.175,2.175,0,0,1,.49,1.292l21.55,6.463a2.178,2.178,0,0,1,1.19-1.145l-4.54-21.2a2.208,2.208,0,0,1-1.14-.5Zm23.94,6.463c0.03,0,.06-0.009.09-0.009a2.174,2.174,0,0,1,1.59.7l20.28-11.548a2.206,2.206,0,0,1-.13-0.73l-25.05-10.332a2.185,2.185,0,0,1-1.3.845Zm23.76-13.745a1.785,1.785,0,0,1,.23-0.024,2.135,2.135,0,0,1,1.67.8l19.09-8.811a2.226,2.226,0,0,1-.12-0.687,2.165,2.165,0,0,1,.28-1.042l-22.16-12.8a2.188,2.188,0,0,1-1.09.7Zm21.34-7.393-19.08,8.8a1.99,1.99,0,0,1,.14.732,2.05,2.05,0,0,1-.18.856l20.85,13.492a2.213,2.213,0,0,1,.97-0.777l-1.23-22.29A2.144,2.144,0,0,1,1398.58,937.676Zm3.42,22.955c0.04,0,.07-0.011.11-0.011a2.178,2.178,0,0,1,1.73.858l18.17-7.328c0-.02-0.01-0.038-0.01-0.058a2.116,2.116,0,0,1,.35-1.162L1401.79,937.9a2.164,2.164,0,0,1-1.02.56Zm20.16-5.759-17.99,7.251a2.1,2.1,0,0,1,.12.664,2.18,2.18,0,0,1-.34,1.158l19.44,17.316a2.156,2.156,0,0,1,1.41-1.029l-0.89-24A2.155,2.155,0,0,1,1422.16,954.872Zm3.36,25.331a2.174,2.174,0,0,1,1.38.716l17.67-9.14a2,2,0,0,1-.11-0.649,2.225,2.225,0,0,1,.16-0.819l-19.12-14.5a2.245,2.245,0,0,1-.87.4Zm1.77,1.331a2.183,2.183,0,0,1,.16.811,2.14,2.14,0,0,1-.17.84l15.24,19.135a2.152,2.152,0,0,1,.5-0.07,2.518,2.518,0,0,1,.55.08l2.56-29.1a2.181,2.181,0,0,1-1.23-.806Zm15.51,25.036a2.174,2.174,0,0,1-1.49-.84l-18.74,4.38a2.33,2.33,0,0,1,.17.84,2.133,2.133,0,0,1-.4,1.24l11.3,18.44a2.272,2.272,0,0,1,.69-0.12,2.123,2.123,0,0,1,.75.14Zm-7.78,28.15a2.272,2.272,0,0,1-.69.12,2.154,2.154,0,0,1-.8-0.16l-16.39,19.43a2.07,2.07,0,0,1,.51,1.2l18.64,2.33a2.163,2.163,0,0,1,1.72-1.4Zm-2.11-.42a2.172,2.172,0,0,1-.74-1.51l-16.34.86a2.144,2.144,0,0,1-1.96,1.9l1.78,17.81a2.147,2.147,0,0,1,.94.28Zm-19.78,1.19a2.085,2.085,0,0,1-1.04-.64l-16.31,10.38a2.136,2.136,0,0,1,.17.84,2.2,2.2,0,0,1-.26,1.01l18.17,7.03a2.1,2.1,0,0,1,1.07-.68Zm0.35,19.25-18.25-7.06a2.139,2.139,0,0,1-1.45.57c-0.03,0-.05-0.01-0.07-0.01l-1.28,21.78a2.246,2.246,0,0,1,1.09.62l20.22-13.88a2.141,2.141,0,0,1-.4-1.25A2.191,2.191,0,0,1,1413.48,1054.74Zm-22.34,19.43a2.156,2.156,0,0,1-1.02-.89l-26.17,10.53a2.063,2.063,0,0,1,.11.65,2.282,2.282,0,0,1-.02.27l19.79,11.7a2.206,2.206,0,0,1,2.48-.55Zm-30.65,11.93a2.118,2.118,0,0,1-.7-1.16l-25.09,4.7a2.236,2.236,0,0,1-.39.84l18.19,14.8a2.138,2.138,0,0,1,1.43-.55,1.87,1.87,0,0,1,.34.03Zm-26.72,4.88a2.123,2.123,0,0,1-1.2.36,2.146,2.146,0,0,1-.8-0.15l-10.1,13.37a2.227,2.227,0,0,1,.64.95l29.6,0.64a2.018,2.018,0,0,1,.14-0.3Zm-2.62-.17a2.205,2.205,0,0,1-.73-1.34l-25.05-3.76a2.072,2.072,0,0,1-.49.49l14.52,17.99a2.186,2.186,0,0,1,.85-0.17,2.154,2.154,0,0,1,.8.16Zm-28.4-8.34-6.47-21.17a2.157,2.157,0,0,1-1.62-.83l-15,8.88a2.477,2.477,0,0,1,.03.27,2.082,2.082,0,0,1-.36,1.18l22.33,12.67A2.167,2.167,0,0,1,1302.75,1082.47Zm-23.31-13.83,14.87-8.8a2.138,2.138,0,0,1-.13-0.72,2.166,2.166,0,0,1,.44-1.3l-19.25-15.59a2.154,2.154,0,0,1-1.16.54l3.01,24.71c0.1-.01.2-0.03,0.3-0.03A2.165,2.165,0,0,1,1279.44,1068.64Zm-5.96-25.88a2.182,2.182,0,0,1-1.67-1.55l-16.51,5.2a2.082,2.082,0,0,1,.14.75,2.191,2.191,0,0,1-.23.96l21.01,19.78a1.528,1.528,0,0,1,.3-0.19Zm-1.74-2.29a2.13,2.13,0,0,1,.68-1.42l-14.77-19.38a2.2,2.2,0,0,1-1.14.33,2.85,2.85,0,0,1-.29-0.03l-2.62,25.06a2.2,2.2,0,0,1,1.32.74Zm-16.23-20.72a2.192,2.192,0,0,1-1.11-1.41l-14.19,1.18c0,0.04.01,0.08,0.01,0.12a2.154,2.154,0,0,1-.87,1.73l12.53,24.13a2.156,2.156,0,0,1,.99-0.46Zm-15.46-.94,14.3-1.19a2.126,2.126,0,0,1,.62-1.32l-9.94-19.211-5.75,20.771A2.117,2.117,0,0,1,1240.05,1018.81Zm16.44-3.15h0.02a2.166,2.166,0,0,1,1.82.98l16.33-6.01a2.581,2.581,0,0,1-.04-0.4,2.153,2.153,0,0,1,.5-1.37l-11.95-18.376a2.149,2.149,0,0,1-.86.176c-0.04,0-.08-0.009-0.12-0.011Zm6.95-29.014a2.353,2.353,0,0,1,.47.383l19.8-5.878a2.151,2.151,0,0,1,1.28-1.872l-11.7-18.475a2,2,0,0,1-1.18.134Zm8.95-30c0.02,0,.04-0.006.06-0.006a2.179,2.179,0,0,1,1.16.338l16.7-24.725a2.119,2.119,0,0,1-.74-1.061l-22.61,5.8a2.233,2.233,0,0,1,.05.451,2.165,2.165,0,0,1-1.14,1.909Zm-5.7-20.326,22.78-5.851a2.175,2.175,0,0,1,1.26-1.876l-3.21-15.452a1.813,1.813,0,0,1-.22.023,2.166,2.166,0,0,1-1.5-.607l-19.89,23A2.15,2.15,0,0,1,1266.69,936.319Zm24.74-7.911a2.046,2.046,0,0,1,.22-0.022,2.215,2.215,0,0,1,.28.029l21.28-18.735a2.027,2.027,0,0,1-.18-0.851c0-.039.01-0.075,0.01-0.114l-23.58,2.359a2.182,2.182,0,0,1-1.24,1.873Zm-2.07-18.053,23.85-2.384a2.172,2.172,0,0,1,1.08-1.1l-3.14-9.664a2.058,2.058,0,0,1-2.14-.991l-20.17,13.242A2.168,2.168,0,0,1,1289.36,910.355Zm32.27,18.924a2.221,2.221,0,0,1,.39.943l24.46,4.587a2.172,2.172,0,0,1,1.28-1.221l-3.65-20.089a2.147,2.147,0,0,1-1.37-.917Zm26.85,4.175,0.02,0a2.165,2.165,0,0,1,1.78.924l22.13-12.909c-0.01-.112-0.03-0.224-0.03-0.34a2.036,2.036,0,0,1,.18-0.853l-26-8.145a2.171,2.171,0,0,1-1.71,1.381Zm-1.78-22.092v0.052l26.28,8.232a2.146,2.146,0,0,1,1.58-.686,2.188,2.188,0,0,1,1.58.678l21.35-7.014a1.966,1.966,0,0,1-.08-0.544,0.163,0.163,0,0,1,.01-0.069l-25.29-11.82a2.151,2.151,0,0,1-3.3-.271l-22.33,10.541A2.1,2.1,0,0,1,1346.7,911.362Zm55.72,24.688a2.93,2.93,0,0,1,.03.3,2.073,2.073,0,0,1-.24.958l20.63,15.087a2.21,2.21,0,0,1,.92-0.428l-3.93-19.99a2.143,2.143,0,0,1-1.3-.791Zm22.08,15.907a2.169,2.169,0,0,1,1.13.525l13.2-8.424a2.082,2.082,0,0,1-.17-0.828,2.143,2.143,0,0,1,.74-1.61l-17.73-10.174a2.181,2.181,0,0,1-1.1.535Zm14.72-7.291-13.13,8.385a2.1,2.1,0,0,1-.09,2.236l19.01,14.412a2.464,2.464,0,0,1,.57-0.451l-4.29-23.9a2.144,2.144,0,0,1-.45.046A2.178,2.178,0,0,1,1439.22,944.666Zm7.63,28.61-2.58,29.374a2.187,2.187,0,0,1,.85,1.24l16.43-6.237a2.363,2.363,0,0,1-.05-0.464,2.158,2.158,0,0,1,.76-1.637l-14.92-22.379A2.191,2.191,0,0,1,1446.85,973.276Zm14.98,25.047-16.66,6.317a2.192,2.192,0,0,1-.54,1.23l9.83,21.81a2.093,2.093,0,0,1,.51-0.07,2.283,2.283,0,0,1,.7.12l7.28-28.5A2.125,2.125,0,0,1,1461.83,998.323Zm-5.51,29.777a2.191,2.191,0,0,1,.69.97l13.32-4.63a2.312,2.312,0,0,1-.16-0.83,2.167,2.167,0,0,1,1.04-1.85l-6.74-22.562a2.185,2.185,0,0,1-.81.158h0Zm3.88,24.95-4.26-21.32a2.291,2.291,0,0,1-.72.21l-14.9,25.59a1.629,1.629,0,0,1,.11.31l18.2-2.43a2.4,2.4,0,0,1-.03-0.28A2.157,2.157,0,0,1,1460.2,1053.05Zm-0.89,3.67a2.232,2.232,0,0,1-.46-0.6l-18.36,2.44a2.172,2.172,0,0,1-1.48,1.89l-0.33,23.77Zm-20.56-.47a2.245,2.245,0,0,1,1.12.61l14.54-24.97a2.2,2.2,0,0,1-1.48-1.38l-16.46,1.92a1.967,1.967,0,0,1,.03.24,2.167,2.167,0,0,1-.8,1.67Zm-21.44,25.62,20.64,2.51,0.33-23.81a2.223,2.223,0,0,1-1.02-.28l-20.5,20.19A2.156,2.156,0,0,1,1417.31,1081.87Zm-1.13-1.84,20.52-20.2a2.173,2.173,0,0,1-.56-1.44c0-.01.01-0.03,0.01-0.04l-18.55-2.32a2.165,2.165,0,0,1-1.45,1.54l-0.94,22.19A2.1,2.1,0,0,1,1416.18,1080.03Zm-1.7-.17,0.94-22.19a2.2,2.2,0,0,1-1.16-.39l-20.33,13.96a2.324,2.324,0,0,1,.2.91,2.215,2.215,0,0,1-.26,1.03l19.35,7.74A2.175,2.175,0,0,1,1414.48,1079.86Zm-7.04,23.72a2.2,2.2,0,0,1,1.53-.64l4.82-19.3a2.125,2.125,0,0,1-.52-0.6l-25.68,14.44a2.579,2.579,0,0,1,.04.39c0,0.05-.01.09-0.01,0.13Zm-28.1,12.77,27.47-11.25a2.038,2.038,0,0,1,.2-0.89l-19.55-5.5a2.177,2.177,0,0,1-2.01,1.33,1.366,1.366,0,0,1-.19-0.02l-6.74,15.53A2.171,2.171,0,0,1,1379.34,1116.35Zm-1.5-1.05,6.71-15.46a2.16,2.16,0,0,1-.99-0.9l-27.53,7.43a2.347,2.347,0,0,1,.07.54,2.579,2.579,0,0,1-.04.39l19.82,8.67a2.169,2.169,0,0,1,1.59-.71A2.206,2.206,0,0,1,1377.84,1115.3Zm-7.06,14.02,5.97-9.85a2.167,2.167,0,0,1-1.35-1.43l-29.79,5.22a1.872,1.872,0,0,1-.04.42Zm-25.28-6.77,29.82-5.23a2.043,2.043,0,0,1,.16-0.74l-19.67-8.6a2.154,2.154,0,0,1-1.88,1.11,2.052,2.052,0,0,1-.78-0.16l-7.88,13.13A2.193,2.193,0,0,1,1345.5,1122.55Zm-3.39-1.03a2.157,2.157,0,0,1,2.65-.01l7.77-12.95a2.187,2.187,0,0,1-.76-1.65v-0.04l-29.34-.64a2.411,2.411,0,0,1-.12.67Zm-33.84-2.13,33.21,2.9c0.04-.08.08-0.16,0.13-0.24l-19.65-14.51a2.161,2.161,0,0,1-1.71.84,2.51,2.51,0,0,1-.55-0.07l-11.54,10.56A2.652,2.652,0,0,1,1308.27,1119.39Zm-2.14-1.96a2.153,2.153,0,0,1,1.66.79l11.2-10.24a2.17,2.17,0,0,1-.92-1.78,2.1,2.1,0,0,1,.08-0.56l-28.33-7.64a2.971,2.971,0,0,1-.28.34Zm-18.1-22.83a2.108,2.108,0,0,1,1.46.58l12.27-9.54a2.154,2.154,0,0,1-.35-1.18,2.66,2.66,0,0,1,.03-0.28l-22.62-12.84a2.022,2.022,0,0,1-.58.31l9.5,22.97A2.642,2.642,0,0,1,1288.03,1094.6Zm-1.61.73a2.439,2.439,0,0,1,.62-0.49l-9.53-23.05a2.181,2.181,0,0,1-1.49-.61l-13,5.66c0,0.01.01,0.02,0.01,0.03a2.14,2.14,0,0,1-.76,1.62Zm-23.54-19.22,12.71-5.53a2.069,2.069,0,0,1-.24-0.96,2.155,2.155,0,0,1,.37-1.2l-20.94-19.71a2.05,2.05,0,0,1-.81.5l6.46,25.55a2.024,2.024,0,0,1,.43-0.05A2.153,2.153,0,0,1,1262.88,1076.11Zm-9.56,2.89,15.36,21.16-7.81-21.14h-0.01a2.173,2.173,0,0,1-1.84-1.03Zm-18.61-29.52,24.43,26.09a1.98,1.98,0,0,1,.61-0.54l-6.5-25.7a2.168,2.168,0,0,1-2.14-1.89l-11.26,2.47,0.01,0.13-0.36.02-0.34.12-0.07-.17v0.05Zm5.11-.3,11.32-2.49a2.128,2.128,0,0,1,.23-0.59l-12.66-24.4a1.519,1.519,0,0,1-.2.06Zm-1.3-31.65,0.09,0.03,5.89-21.257a2.176,2.176,0,0,1-1.13-1.031l-1.16.426-4.7,3.683a2.162,2.162,0,0,1-.73,3.4Zm-4.59-28.68-4.95,16.3,4.8-3.76a2.273,2.273,0,0,1-.09-0.59,2.178,2.178,0,0,1,1.87-2.145l-1.17-9.9A2.152,2.152,0,0,1,1233.93,988.85Zm2.36,9.817a2.209,2.209,0,0,1,.65.245l4.87-3.819,0.22,0.285-0.12-.34,1.24-.458a1.526,1.526,0,0,1-.03-0.3,2.162,2.162,0,0,1,4-1.158l13.03-4.8a2.168,2.168,0,0,1,1.34-1.832l-10.03-17.022a2.115,2.115,0,0,1-1.46.583,2.152,2.152,0,0,1-1.12-.322l-13.61,15.459a2.149,2.149,0,0,1-.19,3.191Zm6.45-45.306c-0.07,0-.14-0.015-0.21-0.022l-7.45,30.968,13.25-15.06a2.169,2.169,0,0,1,.5-3.212l-5.44-12.785A2.131,2.131,0,0,1,1242.74,953.361Zm20.42-14.551-18.36,11.741a2.281,2.281,0,0,1,.11.643,2.171,2.171,0,0,1-.87,1.726l5.46,12.83a2.112,2.112,0,0,1,.5-0.064,2.162,2.162,0,0,1,1.73.876l18.59-7.381a2.327,2.327,0,0,1-.03-0.376,2.158,2.158,0,0,1,1.38-2.014l-6.49-17.2a2.06,2.06,0,0,1-.34.035A2.156,2.156,0,0,1,1263.16,938.81Zm2.26-22.68a2.171,2.171,0,0,1-1.55,1.342l0.9,17.8c0.03,0,.05-0.007.07-0.007a2.176,2.176,0,0,1,.34.034l20.19-23.346a1.942,1.942,0,0,1-.19-0.527Zm10.04-10.288,9.87,4.23a2.183,2.183,0,0,1,1.95-1.268l5.36-13.4Zm18.17-10.962-5.62,14.052a1.368,1.368,0,0,1,.19.076l20.52-13.475a2.355,2.355,0,0,1-.05-0.464,2.172,2.172,0,0,1,3.56-1.666l13.94-11.271Zm33.55-12.635-14.4,11.646,23.44-1.267a2.286,2.286,0,0,1,.14-0.588Zm11.18,12.824a2.161,2.161,0,0,1-1.77-.925l-19.81,13.21a2.135,2.135,0,0,1,.52.957l25.26,2.156a2.28,2.28,0,0,1,.75-0.9l-4.74-14.515C1338.5,895.054,1338.43,895.069,1338.36,895.069Zm0.91-.208,4.71,14.4a2.08,2.08,0,0,1,2.11.59l22.43-10.589a1.945,1.945,0,0,1-.09-0.593v-0.062l-28.06-4.933A2.174,2.174,0,0,1,1339.27,894.861Zm25.17-9.571a2.169,2.169,0,0,1-2.1-1.679l-21.9,8.7a2.183,2.183,0,0,1,.08.576v0.078l28.05,4.932a2.2,2.2,0,0,1,1.14-1.2l-5.11-11.422C1364.55,885.278,1364.5,885.29,1364.44,885.29Zm2.05-1.488a2.2,2.2,0,0,1-1.17,1.3l5.1,11.421c0.06,0,.11-0.017.17-0.017a2.164,2.164,0,0,1,2.09,1.611l24.39-2.409a2.307,2.307,0,0,1,.19-0.52Zm30.57,12.633-24.32,2.4a2.094,2.094,0,0,1-.19.749l25.01,11.695a2.184,2.184,0,0,1,1.28-1.232V898.283A2.165,2.165,0,0,1,1397.06,896.435Zm3.46,1.418a2.122,2.122,0,0,1-.96.429v11.632h0.02a2.165,2.165,0,0,1,2.16,2.167c0,0.049-.01.1-0.01,0.144l22.51,2.22a2.245,2.245,0,0,1,.19-0.233Zm23.3,17.856a1.813,1.813,0,0,1,.09-0.57l-22.34-2.2a2.019,2.019,0,0,1-.32.5l17.26,15.064a2.161,2.161,0,0,1,1.71-.847,2.119,2.119,0,0,1,.76.147l3.51-10.53A2.164,2.164,0,0,1,1423.82,915.709Zm2.18,2.167a2.186,2.186,0,0,1-.88-0.187l-3.5,10.5a2.182,2.182,0,0,1,.76,1.649,2.125,2.125,0,0,1-.27,1.033l17.65,10.125L1426.85,917.7A2.153,2.153,0,0,1,1426,917.876Zm3.09-13-2.16,8.883a2.154,2.154,0,0,1,1.25,1.95,2.265,2.265,0,0,1-.04.372l21.3,12.962a2.039,2.039,0,0,1,.65-0.456Zm21.96,27.838c-0.02,0-.04.006-0.06,0.006a2.137,2.137,0,0,1-1.3-.444l-7.01,9.8a2.074,2.074,0,0,1,.34,1.151,2.252,2.252,0,0,1-.12.691l18.81,17.216Zm11.27,32.49a2.148,2.148,0,0,1-1.28-1.04l-12.33,6.3a2.4,2.4,0,0,1,.11.663,2.145,2.145,0,0,1-.84,1.7l14.9,22.346a2.14,2.14,0,0,1,.68-0.142Zm1.13,0.039a2.288,2.288,0,0,1-.4.054l1.24,29.826a2.2,2.2,0,0,1,1.18.866l9.6-5.6a2.013,2.013,0,0,1-.16-0.813,2.1,2.1,0,0,1,.49-1.357ZM1476.1,991.5a2.13,2.13,0,0,1-.65-0.5l-9.69,5.655a2.32,2.32,0,0,1,.07.531,2.134,2.134,0,0,1-.73,1.61l6.78,22.681a2.416,2.416,0,0,1,.47-0.05h0.01Z" transform="translate(-1227.22 -877)"/>
</svg>
