<svg xmlns="http://www.w3.org/2000/svg" width="16" height="21" viewBox="0 0 16 21"><path fill="#adc3ce" d="M.5 20.5v-3.594a4.688 4.688 0 014.687-4.687h5.625a4.687 4.687 0 014.688 4.687V20.5zm13.34-3.555a3.164 3.164 0 00-3.164-3.164H5.402a3.164 3.164 0 00-3.164 3.164v1.895H13.84zm-5.791-6.387c-2.767 0-5.01-2.251-5.01-5.029C3.039 2.752 5.282.5 8.049.5c2.766 0 5.01 2.253 5.01 5.03 0 2.778-2.244 5.03-5.01 5.03zm0-8.398a3.355 3.355 0 00-3.35 3.36c0 1.855 1.5 3.359 3.35 3.359s3.35-1.504 3.35-3.36c0-1.855-1.5-3.359-3.35-3.359z"/></svg>