<svg xmlns="http://www.w3.org/2000/svg" width="258" height="260" viewBox="0 0 258 260"><path data-name="передняя часть" d="M256.68 117.496l-1.94 34.236a2.513 2.513 0 01-.98 4.71l-13.4 36.51a2.518 2.518 0 01.85 1.88 2.546 2.546 0 01-2.55 2.54 2.654 2.654 0 01-.89-.17l-7.95 10.39-.57-.44.56.47-17.51 21.21a2.516 2.516 0 01-2.24 3.67 2.457 2.457 0 01-1.08-.26l-29.36 17.43a1.5 1.5 0 01.02.22 2.535 2.535 0 01-2.55 2.52 2.562 2.562 0 01-2.1-1.1l-30.39 7.28a2.543 2.543 0 01-2.27 1.43 2.514 2.514 0 01-2.09-1.11l-30.87-.33.01-.72-.34.64-.6-.31-34.15-9.47a2.5 2.5 0 01-1.85.82 2.537 2.537 0 01-2.53-2.55 2.577 2.577 0 01.24-1.07l-24.79-15.38a2.4 2.4 0 01-.8.14 2.537 2.537 0 01-2.55-2.53 2.44 2.44 0 01.47-1.45l-17-18.63a2.379 2.379 0 01-.85.16 2.529 2.529 0 01-2.1-3.94l-14.59-27.22a1.655 1.655 0 01-.32.03 2.525 2.525 0 01-1.54-4.53l-4.56-28.27a2.534 2.534 0 01-1.52-2.33 2.561 2.561 0 011.52-2.33l.22-5.42a2.546 2.546 0 01.14-4.16l.59-25.687a2.526 2.526 0 011.17-4.766h.01l.31-.4 14.12-34.825a2.49 2.49 0 01-.69-1.727 2.523 2.523 0 012.53-2.519 2.447 2.447 0 01.34.034l24.72-26.647 1.17-1.97a2.522 2.522 0 014.27-2.485l33.37-18.573a2.523 2.523 0 014.72-1.76l37.54-5.994c0-.065-.02-.127-.02-.193a2.527 2.527 0 015.05-.158l36.42 5.733a2.548 2.548 0 014.91.939 2.61 2.61 0 01-.09.63l22.15 11.375a2.5 2.5 0 011.83-.8 2.534 2.534 0 012.52 2.546 2.413 2.413 0 01-.13.762l4.04 3.367a2.507 2.507 0 01.82-.147 2.543 2.543 0 012.53 2.546 2.693 2.693 0 01-.09.64l19.89 15.607a2.505 2.505 0 011.2-.319 2.538 2.538 0 011.71 4.416l18.2 31.346a2.488 2.488 0 011.26 3.215l7.19 28.413c.08-.007.15-.024.24-.024a2.53 2.53 0 011 4.859zm-17.49 74.426l12.84-34.97-13.45 12.3a2.482 2.482 0 01-1.17 2.78zM4.42 134.452l11.74 30.27 2.54-39.758a2.448 2.448 0 01-.81-.705l-12.27 7.013a2.589 2.589 0 01.17.92 2.552 2.552 0 01-1.37 2.26zm13.13 31.23a2.612 2.612 0 01.69.39l21.98-11.14a2.4 2.4 0 01-.03-.28 2.538 2.538 0 01.67-1.71l-20.32-27.74a2.47 2.47 0 01-.41.065zm74.79 63.85l41.12 12.95a2.58 2.58 0 011.21-1.35l-6.66-26.04a2.506 2.506 0 01-1.49-.65l-34.2 14.33a2.607 2.607 0 01.05.48c0 .09-.02.18-.03.28zm49.39 25.5a2.9 2.9 0 01.6-.08 2.53 2.53 0 012.36 1.64l27.18-11.54-33.65-.88a2.517 2.517 0 01-.77 1.13zm68.97-44.82l-6.45-25.18a2.085 2.085 0 01-.35.04 2.325 2.325 0 01-.84-.16l-26.43 34.26 33.06-6.87c0-.03-.01-.05-.01-.08a2.5 2.5 0 011.02-2.01zM61.16 59.529l30.16 19.128a2.519 2.519 0 011.21-.4l10.11-39.153a2.566 2.566 0 01-.64-.554l-40.79 20.4v.085a2.051 2.051 0 01-.05.494zM32.12 85.812l16.45 16.745a2.553 2.553 0 011.11-.4l8.14-40.736-.03-.011-25.82 22.591a2.537 2.537 0 01.26 1.1 2.765 2.765 0 01-.11.711zm-10.33 38.639l20.32 27.738c.07-.02.14-.03.22-.05l6.64-45.165a2.494 2.494 0 01-.6-.381l-26.13 15.164a2.6 2.6 0 01.21 1.009 2.478 2.478 0 01-.66 1.688zm65.84 64.808l38.72 21.62a2.49 2.49 0 011.5-.8v-40.84a2.55 2.55 0 01-.98-.8l-39.4 19.69a2.4 2.4 0 01.18.92 1.492 1.492 0 01-.02.213zm43.11 23.4l41.51 7.24a2.456 2.456 0 011.39-1.33l-8.44-25.92h-.05a2.512 2.512 0 01-2.15-1.22l-32.27 20.98a.985.985 0 01.02.17c0 .023-.01.053-.01.083zm47.95-62.88a2.732 2.732 0 01-.86.16l-11.3 38.09a2.442 2.442 0 01.4.32l34.47-6.17a2.544 2.544 0 01.52-1.21zm24.42 30.36a2.569 2.569 0 01.79-.14 2.51 2.51 0 01.55.07l14.29-42.56a2.389 2.389 0 01-.75-.86l-37.67 11.23a2.574 2.574 0 01-.46 1.04zm-62.66-64.827l35.97 29.977a2.675 2.675 0 011.12-.39l8.39-46.323a3.12 3.12 0 01-.28-.3l-45.18 16.277a2.353 2.353 0 01.03.266 2.7 2.7 0 01-.05.493zm-9.07 52.317l32.49 20.35a2.383 2.383 0 011.27-.36l11.3-38.1a2.435 2.435 0 01-.64-.6l-44.34 17.8c0 .08.02.16.02.24a2.467 2.467 0 01-.1.673zm43.92-20.07a.777.777 0 01-.02-.16 2.6 2.6 0 01.21-1l-35.74-29.784a2.492 2.492 0 01-1.4.7l-8.29 47.388a2.69 2.69 0 01.85.68zm-12.65 42.37a2.287 2.287 0 01.23-.86l-32.28-20.21a2.522 2.522 0 01-1.3.6v40.83a2.661 2.661 0 01.9.73zm-25.74-72.826a2.539 2.539 0 01-.98-.827l-48.37 19.623a2.672 2.672 0 01.09.64 2.734 2.734 0 01-.05.5l39.77 27.93a2.466 2.466 0 011.27-.51zm-1.13-3.491L94.23 82.79a2.473 2.473 0 01-1.12.47l-6.95 50.979a2.158 2.158 0 01.62.41l48.69-19.75c0-.028-.01-.055-.01-.083a2.465 2.465 0 01.32-1.204zm-9.38 53.437c0-.03-.01-.06-.01-.09a2.463 2.463 0 01.14-.81l-39.61-27.83a2.634 2.634 0 01-1.08.64v47.69a2.3 2.3 0 01.71.33zM91.67 83.072a2.48 2.48 0 01-.83-.611l-38.36 21.78a2.86 2.86 0 01.04.417 2.538 2.538 0 01-.39 1.336l31.48 28.525a2.449 2.449 0 011.11-.47zm-7.28 55.877a2.445 2.445 0 01-1.41-1.07l-37.74 16.27a2.734 2.734 0 01.05.5 2.44 2.44 0 01-.2.97l38.61 31.34a2.392 2.392 0 01.69-.31v-47.7zm-1.8-2.48a2.913 2.913 0 01.15-.78l-31.7-28.732a2.524 2.524 0 01-.63.191l-6.65 45.171a2.6 2.6 0 01.8.55zm-31.48-34.072a2.649 2.649 0 01.73.542l38.37-21.788a2.426 2.426 0 01-.04-.384 2.369 2.369 0 01.21-.994L60.48 60.81a2.511 2.511 0 01-1.19.681zM93.94 78.56a2.643 2.643 0 01.58.418l48.91-17.753v-.013a2.249 2.249 0 01.07-.583l-37.82-21.847a2.517 2.517 0 01-1.64.682zm1.27 1.708a2.062 2.062 0 01.05.5 2.48 2.48 0 01-.16.863l41.72 30.951a2.282 2.282 0 01.39-.164l7.61-48.958a2.538 2.538 0 01-.97-.847zm43.47 32.126a2.452 2.452 0 011.23.818l45.2-16.284a1.8 1.8 0 01-.02-.234 2.525 2.525 0 01.32-1.222l-37.86-32.31a2.464 2.464 0 01-1.31.552zm47.77-17.939a2.479 2.479 0 01.81-.258l.32-38.919a2.52 2.52 0 01-1.42-1.107l-37.69 7.223a2.546 2.546 0 01-.1.558zm.84 4.741l-8.32 45.953a2.536 2.536 0 011.2 1.26l37.52-11.19a2.554 2.554 0 01.53-1.34l-29.6-34.867a2.535 2.535 0 01-1.02.215 2.71 2.71 0 01-.31-.028zm2.35-3.983l31.3-9.512a2.524 2.524 0 01.67-1.6l-32.23-28.944a2.377 2.377 0 01-.35.124l-.32 39.141a2.518 2.518 0 01.93.79zm31.63-8.1l-31.16 9.47c0 .038.01.073.01.111a2.569 2.569 0 01-.4 1.375l29.69 34.97a1.169 1.169 0 01.2-.06l2.98-44.748a2.55 2.55 0 01-1.32-1.119zm-1.07 50.876c-.03 0-.06-.01-.09-.01l-14.38 42.81.11.14 27.8-10.63a3.128 3.128 0 01-.04-.44 2.526 2.526 0 01.98-1.99l-14.16-29.9c-.08.003-.14.023-.22.023zm14.1 33.61l-27.9 10.66a2.4 2.4 0 01.03.28 2.5 2.5 0 01-.85 1.87l6.48 25.3a.985.985 0 01.17-.02 2.579 2.579 0 01.39.04l21.91-37.93a1.434 1.434 0 01-.23-.197zm-32.41 12.46a2.6 2.6 0 01-.28-.45l-33.99 6.09a2.1 2.1 0 01.05.43 2.5 2.5 0 01-1.09 2.07l8.54 26.25c.07.02.13.04.19.06zm-27.84 39.34a2.52 2.52 0 01-1.53-1l-34.09 20.32 35.42.93a2.543 2.543 0 011.57-2.27zm-36.48 18.15l34.03-20.29-41.33-7.22a2.627 2.627 0 01-.84.75l6.67 26.08a2.457 2.457 0 011.47.683zm-11.8-28.36a2.5 2.5 0 01-.09-.61 2.337 2.337 0 01.04-.39l-38.63-21.57a2.694 2.694 0 01-.96.74l3.86 35.36a2.5 2.5 0 011.66.76zm-41.07-21.66a2.539 2.539 0 01-1.63-1.01l-33.11 11.92a2.2 2.2 0 01.04.36 2.331 2.331 0 01-.08.59l38.59 23.7a.209.209 0 01.06-.04zm-35.51 13.11a2.8 2.8 0 01-.49.36l11.46 25.72a1.861 1.861 0 01.34-.04 2.55 2.55 0 012.32 1.53l24.49-3.02a2.369 2.369 0 01.23-1zm.16-3.52l33.25-11.97c0-.03-.01-.06-.01-.1a2.528 2.528 0 01.19-.96l-38.6-31.34a3.035 3.035 0 01-.47.25l4.29 43.33a2.479 2.479 0 011.35.793zm-7.09-43.97a2.6 2.6 0 01-1.47-.88l-21.72 11.01a2.377 2.377 0 01.13.76 2.543 2.543 0 01-.52 1.53l27.84 30.42zm5.31-51.767a2.484 2.484 0 01-.12-.724 2.441 2.441 0 01.2-.974L31.3 87.048a2.515 2.515 0 01-1.6.586 2.582 2.582 0 01-.47-.047l-7.96 33.054zm-17.99-22.8l3.27-24.7-18.53 31.207 12.88-4.375a2.528 2.528 0 012.38-2.13zm1.41.352l25.62-22.416a2.554 2.554 0 01-.49-1.488.577.577 0 01.02-.129l-20.02-3.1a2.534 2.534 0 01-1.67 1.024zm5.59-28.528l20.05 3.107a2.482 2.482 0 012.71-.929l9.19-27.591-.09-.091-32.17 24.213a2.5 2.5 0 01.32 1.216.192.192 0 01-.01.081zm24.02 2.978c.04.057.1.113.14.174l40.7-20.35a.61.61 0 01-.01-.135l-29.1-8.445a2.5 2.5 0 01-2.05 1.066 2.625 2.625 0 01-.44-.043zm12.2-30.13l28.97 8.411a2.517 2.517 0 012.18-1.257c.02 0 .05.007.07.008l10.64-21.576a2.985 2.985 0 01-.39-.389l-41.5 14.365a1.982 1.982 0 01.04.346c0 .033-.01.063-.01.094zm32.61 7.626a2.531 2.531 0 01.64.661l40.67-8.855c.01-.025.01-.048.02-.072l-28.85-13.8a2.554 2.554 0 01-1.63.6c-.09 0-.17-.017-.26-.025zm1.07 2.052v.008a2.286 2.286 0 01-.08.588l37.82 21.845a2.53 2.53 0 011.25-.645l2.79-29.22a2.525 2.525 0 01-1.39-1.372zm40.43 21.934a2.55 2.55 0 011.25 1.114l37.64-7.215a2.438 2.438 0 01.11-.607l-35.08-23.063a2.513 2.513 0 01-1.13.549zm39.8-7.914a2.512 2.512 0 01.52-.332l-3.33-20.554a2.528 2.528 0 01-2.37-1.856l-29.83-.635a3.127 3.127 0 01-.08.31zm1.95-.556a2.517 2.517 0 012 1.525l23.08-3.254a3.23 3.23 0 01.15-.445l-28.21-18.81a3.136 3.136 0 01-.37.278zm25.16-.278l-23.01 3.246a2.449 2.449 0 01-.34.833l32.2 28.915-6.33-31.328c-.04 0-.08.014-.13.014a2.542 2.542 0 01-2.39-1.678zm10.4 33.313a2.523 2.523 0 011.25.887l18.13-2.047a2.462 2.462 0 01.59-.809l-26.37-29.713zm.49 4.613a2.487 2.487 0 01-.67.274l-2.98 44.742a2.534 2.534 0 01.89.54l22.65-9.662a2.671 2.671 0 01-.14-.805 2.525 2.525 0 011.06-2.056zm20.76 37.1l-22.8 9.726a2.776 2.776 0 01.07.57 2.582 2.582 0 01-.97 2l14.16 29.91a1.355 1.355 0 01.2-.02 2.282 2.282 0 01.27.02l9.6-41.889a2.481 2.481 0 01-.53-.315zm-7.68 67.316l-1.8-20.08c-.04 0-.08-.01-.11-.01l-21.82 37.78 22.15-14.67a2.755 2.755 0 01-.09-.65 2.536 2.536 0 011.67-2.368zm-26.5 35.31l17.39-21.07 6.98-9.12-21.01 13.91a2.475 2.475 0 01-1.67 3.14l-1.87 13.04c.07.032.12.072.18.102zm-1.61-.3l1.83-12.83a2.476 2.476 0 01-.6-.26l-30.01 26.88 26.68-10.91a2.45 2.45 0 01-.04-.38 2.53 2.53 0 012.14-2.498zm-32.3 19.93a2.514 2.514 0 011.68.91l25.67-15.23-25.83 10.57c0 .02.01.05.01.08a2.526 2.526 0 01-1.8 2.41zm.69-5.55l31.25-27.99-32.26 6.7a2.186 2.186 0 01.03.36 2.526 2.526 0 01-1.59 2.35l1.36 17.97a2.579 2.579 0 011.21.612zm-3.52 8.08v-.04a2.481 2.481 0 011.41-2.24l-.33-1.52a2.439 2.439 0 01-1.07-.64l-24.04 10.19zm-64.99 7.2l24.9.27-31.78-3.83zm30.4-.52a2.665 2.665 0 01.51-.84l-4.34-9.89c-.1.01-.2.03-.3.03a2.532 2.532 0 01-2.27-1.43l-31.04 7.61zm-37.75-1.65l-2.25-1.17a2.644 2.644 0 01-.72.34zm-1.29-3.97l30.79-7.54-39.94-12.58c-.07.08-.14.16-.22.24l7.11 18.06a2.516 2.516 0 012.26 1.822zm-3.68-1.47l-6.99-17.77a2.848 2.848 0 01-.42.04 2.516 2.516 0 01-2.14-1.19l-24.7 3.05c-.01.04-.01.09-.02.13l33.78 16.1a2.474 2.474 0 01.49-.358zm-.58 3.9a2.633 2.633 0 01-.59-1.12l-13.3-2.74zm-25.09-8.81a2.5 2.5 0 01.87-.17 2.55 2.55 0 012.48 2.03l19.88 4.09-31.61-15.07zm-3.53-1.7l-6.7-7.29a2.366 2.366 0 01-.84.16 2.529 2.529 0 01-2.52-2.42l-11.21-3.98a1.94 1.94 0 01-.15.24zM43.62 225.8a2.621 2.621 0 01.94-.18 2.53 2.53 0 012.52 2.33l9.94 3.53-27.22-20.82zm15.05 5.12l-11.42-25.608a2.547 2.547 0 01-2.28-1.95l-17.81 2.29c0 .02.01.03.01.05a2.44 2.44 0 01-.2.97zM24.22 203.2a2.713 2.713 0 01.41-.04 2.556 2.556 0 012.08 1.09l18.38-2.37a2.607 2.607 0 01.48-.78l-28.03-30.64zm-2.01-2.56l-6.14-30.14a2.684 2.684 0 01-1.07-.56l-4.95 3.96a2.527 2.527 0 01.1.67 2.492 2.492 0 01-.88 1.91zM2.98 139.47a2.54 2.54 0 01.04 5l4.45 27.59a.772.772 0 01.15-.02 2.513 2.513 0 011.66.63l4.95-3.97a2.84 2.84 0 01-.09-.66 2.541 2.541 0 01.98-1.99L3.15 135.18zm.93-34.825l-.57 25.015a2.479 2.479 0 011.38.46l12.68-7.251c0-.034-.01-.067-.01-.1a2.507 2.507 0 01.37-1.3L4.85 104.353a2.45 2.45 0 01-.94.294zm1.24-4.526a2.5 2.5 0 01.73 3.183l12.96 17.193a2.568 2.568 0 011.04-.243l8.03-33.358a2.567 2.567 0 01-.5-.717l-12.96 4.4a1.859 1.859 0 01.04.334 2.538 2.538 0 01-3.95 2.09l-5.31 6.935zm2.13-5.238l2.33-3.039a2.411 2.411 0 01-.19-.93 2.523 2.523 0 011.76-2.387l3.54-12zm12.64-29.7a2.634 2.634 0 01-.33-.033L12.7 88.517c.08.025.16.042.24.074l19.3-32.506c-.04-.041-.07-.087-.11-.13l-9.72 6.316a2.465 2.465 0 01-2.49 2.91zm1.72-4.359a1.27 1.27 0 01.13.136l9.78-6.356a2.4 2.4 0 01-.02-.269 2.53 2.53 0 012.53-2.533c.02 0 .05.006.07.007l7.34-12.36zm26.91-27.5a2.518 2.518 0 01-1.14-.284l-1.26 1.36-10.16 17.114 30.77-23.154-15.69 2.571a2.532 2.532 0 01-2.52 2.397zm4.83-4.241l14.41-2.361a2.483 2.483 0 013.13-2l11.6-11.861zm34.89-17.85a2.521 2.521 0 01-3 .89L72.21 25.477l41.15-14.246H88.27zm2.89-1.448h22.81a2.535 2.535 0 013.63-1.048l8.01-4.453zm39.6-5.975a2.505 2.505 0 01-3.23 1.063l-8.95 4.976c.03.073.05.151.08.228l37.17-1.271a2.476 2.476 0 01.49-.972zm25.14 6.443l-37.19 1.271c-.01.024-.01.046-.02.068l28.76 13.754a2.5 2.5 0 011.76-.717 2.452 2.452 0 01.74.124l6.61-13.485a2.519 2.519 0 01-.66-1.011zm2.37 1.7a2.373 2.373 0 01-.41-.042l-6.7 13.662a2.4 2.4 0 01.35.55l30.05.64c.02-.049.03-.1.05-.148l-21.78-15.218a2.5 2.5 0 01-1.56.559zm2.34-3.442a.618.618 0 01.04.131l.65-.023zm10.96 2.428a2.538 2.538 0 01-4.12-1.082l-6.76.233c-.01.039-.03.077-.04.116l21.86 15.27a2.524 2.524 0 012.84-.058l8.46-2.306a2.9 2.9 0 01-.03-.3 2.19 2.19 0 01.05-.445zm26.31 13.846a2.462 2.462 0 01-3.49-.329l-8.04 2.192a2.25 2.25 0 01.11.364l14.89 1.082a2.8 2.8 0 01.17-.271zm6.42 6.976a2.48 2.48 0 01-.75.129 2.532 2.532 0 01-2.52-2.366l-14.11-1.027 27.7 18.47zm1.92.244l9.99 14.729a2.54 2.54 0 012.24 1.352l6.12-.453a2.608 2.608 0 01.29-1zm21.27 18.318a2.71 2.71 0 01-.41.04 2.511 2.511 0 01-2.19-1.3l-6.16.456a2.32 2.32 0 01-.23.826l26.01 29.3zm18.12 35.468a2.521 2.521 0 01-2.19-2.041l-17.45 1.97a.559.559 0 01.02.128 2.523 2.523 0 01-.26 1.1l20.49 32.524zm-7.85 82.14l.06.06 13.69-12.53a2.543 2.543 0 01-.52-1.53 2.5 2.5 0 01.94-1.95l-4.66-25.6zm9.32-82.409l-.03.016.64 35.173a2.653 2.653 0 01.68.3l4.89-5.085a2.376 2.376 0 01-.13-.756 2.5 2.5 0 01.95-1.96zm7.02 31.621l-4.79 4.976a2.463 2.463 0 01.22 1.015 2.513 2.513 0 01-1.01 2.007l4.78 26.28h.01l1.91-33.764a2.493 2.493 0 01-1.12-.511z" fill="#00cece" fill-rule="evenodd"/></svg>