<svg xmlns="http://www.w3.org/2000/svg" width="254" height="254" viewBox="0 0 254 254"><path data-name="задняя часть" d="M253.58 138.76l.5.52-6.91 6.61a2.144 2.144 0 01.14.72 2.235 2.235 0 01-.41 1.27l3.56 3.56-.51.51-3.56-3.56a2.2 2.2 0 01-1.26.4 1.983 1.983 0 01-.35-.03l-9.7 27.84a2.158 2.158 0 01.27.33l10.2-5.56 4.67-18.68.7.18-4.71 18.83-.35-.09.33.15-8.69 19.2-.52-.24.18.72-.7.18-2.84-11.33c-.02 0-.05.01-.07.01a2.2 2.2 0 01-.86-.18l-20.94 27.93-.29-.22-.05.36-21.42-2.6a2.176 2.176 0 01-2.07 1.52 2.272 2.272 0 01-.69-.12l-4.77 19.07a2.193 2.193 0 01.49.23l27.22-18.04.4.6-27.08 17.94a2 2 0 01.27.44l13.31 1.38a2.16 2.16 0 012.08-1.59 2.133 2.133 0 011.24.4l34.35-34.69.51.5-34.35 34.7a2.167 2.167 0 11-3.91 1.4l-13.05-1.36c0 .05.01.09.01.14a2.175 2.175 0 01-2.18 2.16 2.2 2.2 0 01-1.06-.28l-9.16 12.1-.58-.44 9.17-12.12a2.026 2.026 0 01-.42-.71l-27.34 11.21a2.581 2.581 0 01.04.4 2.16 2.16 0 01-2.11 2.16l-6.27 10.33-.3-.19-.08.36-25.59-5.73a2.18 2.18 0 01-1.85 1.03 2.142 2.142 0 01-1.22-.37l-7.98 6.44-.45-.56 7.9-6.38a2.15 2.15 0 01-.43-1.29 1.641 1.641 0 01.02-.23L81 243.11a2.161 2.161 0 01-4.26-.51 1.931 1.931 0 01.04-.42l-33.15-15.19.3-.66 33.11 15.18a2.189 2.189 0 011.05-.92l-16.37-18.84a2.133 2.133 0 01-.91.21 2.161 2.161 0 01-1.94-1.23l-16.43 4.83-.21-.7 16.44-4.83a1.751 1.751 0 01.14-1.09L34.38 201.9l8.29 22.46-.68.25-.04-.11-.27.2-16.3-22.45.21-.16-1.66.3-.13-.71 7.72-1.38a1.9 1.9 0 01.05-1.04L6.94 172.95l.51-.48-1.02-.14.1-.71 5.09.67-11.64-32.42.69-.25 11.13 31.04-1.23-25.88a2.154 2.154 0 01-1.9-2.14 2.121 2.121 0 01.08-.57l-7.77-1.61.14-.71 7.95 1.65a2.151 2.151 0 011.5-.9l-1.72-14.53c-.06 0-.13.02-.2.02a2.192 2.192 0 01-1.78-.93l-5.23 4.11-.14-.17-.1.35-.7-.21 5.27-17.337a2.157 2.157 0 01-1.14-3.518l-4.1-8.215.64-.323 4.03 8.062a2.08 2.08 0 011.65-.215l7.56-31.441a2.162 2.162 0 112.64-3.251l18.34-11.725a2.206 2.206 0 01-.13-.73 2.172 2.172 0 011.38-2.027l-.92-17.922a2.175 2.175 0 112.43-2.154v.006l19.44-4.628-11.25-4.823.28-.666.61.258 18.26-11.1.08.138.02-.047-.05-.119.11-.044.05-.115.12.049 34.85-13.651.13.337.23.281-.7.567 9.02 9.625a2.149 2.149 0 013.37.238l22.16-8.8a2.3 2.3 0 01.36-.972L127.27.643l.34-.643 8.36 4.338a2.153 2.153 0 013.38 1.382l27.92-.329.01.725-26.93.317 30.12 11.144a2.183 2.183 0 011.22-.587l-3.67-10.392.68-.241 3.77 10.665a2.173 2.173 0 011.64 1.745l26.21 6.553-.18.7-26.03-6.509a2.23 2.23 0 01-.31.8l24.04 16.448a2.14 2.14 0 01.94-.221 2.167 2.167 0 01.24.024l2.31-9.534.35.085.27-.24 21.72 24.52c.03 0 .06-.011.1-.011a2.166 2.166 0 012.16 2.167 2.12 2.12 0 01-.34 1.167l17.67 24.334-.59.425-17.58-24.218a2.188 2.188 0 01-.54.308l10.67 28.467a2.268 2.268 0 01.51-.063 2.166 2.166 0 011.19.355l4.73-3.893.46.559-4.66 3.834a2.13 2.13 0 01-.55 3.134l11.84 22.766a2.1 2.1 0 01.75-.281l-5.8-29.3.71-.14 5.82 29.44a2.164 2.164 0 01-.37 4.3 2.06 2.06 0 01-.27-.028l-3.73 29.844a2.2 2.2 0 01.96.68zm-16.66 51.72l8.16-18.03-9.44 5.15a2.333 2.333 0 01.07.53 2.146 2.146 0 01-1.38 2.01zm-3.22-14.5a2.126 2.126 0 01.76.19l9.63-27.65a2.142 2.142 0 01-.58-.46l-13.59 4.73a2.2 2.2 0 01-.56 1.45zm.38-91.241l-18.76-17.164a2.308 2.308 0 01-.56.5L219.05 92a2.209 2.209 0 01.37-.037 2.175 2.175 0 011.73.862l12.43-6.353a1.833 1.833 0 01-.03-.333 2.119 2.119 0 01.53-1.4zm-12.27-32.1l-21.14-12.868a2.335 2.335 0 01-.43.532l13.18 23.778a1.938 1.938 0 01.2-.021 2.16 2.16 0 011.34.47l7-9.791a2.116 2.116 0 01-.36-1.189 2.145 2.145 0 01.21-.908zm-30.86-.481l-17.47-15.239a2 2 0 01-.39.187l.31 20.109a2.165 2.165 0 011.58 1.142l15.97-4.824a2.311 2.311 0 01-.12-.7 2.15 2.15 0 01.12-.672zm-75.78-17.982l-25.05-2.137a2.149 2.149 0 01-1.32 1.791l3.46 17.594a2.125 2.125 0 011.63.34l21.33-16.873a2.321 2.321 0 01-.07-.532 1.114 1.114 0 01.02-.18zM84.62 19.984l3.15 9.7c.07-.007.14-.021.21-.021a2.159 2.159 0 01.96.234l20.12-13.416c-.01-.044-.03-.086-.04-.132l-23.26 1.258a2.337 2.337 0 01.05.463 2.143 2.143 0 01-1.19 1.917zM24.71 91.829l10.32 17.5c.02 0 .04-.007.06-.007a2.075 2.075 0 01.45.049l8.67-25.672a2.174 2.174 0 01-.86-.841l-18.52 7.348a2.049 2.049 0 01.12.656 2.1 2.1 0 01-.24.97zm-6.42 27.6l10.06 19.445c.05-.02.09-.04.15-.06l5.76-25.323a2.155 2.155 0 01-1.26-1.432l-12.83 4.723a1.979 1.979 0 01.06.489 2.165 2.165 0 01-1.94 2.164zM62.9 220.324l28.33 7.64a2.435 2.435 0 01.34-.38l-14.58-18.06a2.118 2.118 0 01-.62.1 2.207 2.207 0 01-1.33-.46l-12.33 9.58a2.108 2.108 0 01.27 1.03 2.518 2.518 0 01-.08.556zm93.32-.29l-19.62-11.6a2.146 2.146 0 01-1.92 1.19 1.994 1.994 0 01-.77-.15l-6.17 18.52a2.074 2.074 0 01.77.7l27.58-7.44a2.453 2.453 0 01-.04-.39 2.088 2.088 0 01.17-.824zm29.55-15.43l-19.59-7.84a2.105 2.105 0 01-1.44.56c-.04 0-.07-.01-.11-.01l-4.89 22a2.073 2.073 0 01.37.47l25.67-14.43a2.024 2.024 0 01-.04-.43 1.655 1.655 0 01.03-.314zm40.8-53.65l-9.75-21.64a2.623 2.623 0 01-.46.19l-7.86 24.51a2.124 2.124 0 01.55.71l16.53-1.93v-.01a2.193 2.193 0 01.99-1.824zM172.36 37.241a2.168 2.168 0 01-1.8-.957l-21.22 6.973a2.251 2.251 0 01.18.864 2.127 2.127 0 01-.14.759l22.25 12.849a2.146 2.146 0 011.05-.514l-.31-19.976zm-49 21.992l24.86 10.253a2.149 2.149 0 011.09-1.221l-2.11-21.992a2.168 2.168 0 01-1.76-1.115l-22.07 12.871a1.892 1.892 0 01.09.584 2.123 2.123 0 01-.1.626zm-4.25-.721l-24.32-4.561a2.163 2.163 0 01-1.65 1.706l7.25 18.908c.09-.009.17-.025.25-.025a2.152 2.152 0 011.13.323l17.64-15.162a2.131 2.131 0 01-.31-1.088c0-.029.01-.061.01-.095zm-82.55 54.569l11.89 18.293a2.079 2.079 0 011.13-.33 2.2 2.2 0 01.58.09l7.22-25.12a2.181 2.181 0 01-.8-1.14l-19.48 5.781a2.1 2.1 0 01.17.832 2.164 2.164 0 01-.71 1.6zm-5.58 29.1l14.83 19.46a1.316 1.316 0 01.3-.09l2.91-26.23a2.21 2.21 0 01-1.33-1.02l-16.29 6a2.247 2.247 0 01.07.52 2.153 2.153 0 01-.49 1.369zm47.49 65.84l24.75 3.71a2.111 2.111 0 01.56-1.05l-12.32-14.9a2.207 2.207 0 01-1.33.46 2.131 2.131 0 01-1.06-.29l-10.78 10.49a2.2 2.2 0 01.26 1.01 2.121 2.121 0 01-.08.579zm84.34-13.84l-20.61-10.76a2.173 2.173 0 01-1.74.87h-.07l-4.52 21.36a2.142 2.142 0 01.53.51l26.23-10.56a2.315 2.315 0 01-.05-.46 2.225 2.225 0 01.23-.951zm21.71-38.71l-13.36-11.88a2.173 2.173 0 01-1.24.47l-2.75 22.91a2.213 2.213 0 011 .64l16.3-10.37a2.186 2.186 0 01-.17-.85 2.046 2.046 0 01.22-.911zm30.09-29.87l-14.97-18.791a2.176 2.176 0 01-1.59.693c-.03 0-.06-.008-.09-.01l-3.97 24.388a2.174 2.174 0 01.93.57l18.83-4.39a2.016 2.016 0 01-.11-.65 2.177 2.177 0 01.97-1.801zM128.27 85l19.8 11.139a2.145 2.145 0 011.14-.54l.62-23.26a2.186 2.186 0 01-1.25-.757L128.34 83.1a2.119 2.119 0 01-.07 1.9zm-4.09-1.187l-21.47-6.441a2.123 2.123 0 01-.94 1.212l5.64 16.616c.04 0 .07-.011.11-.011a2.174 2.174 0 011.79.94L124.38 84.9a2.168 2.168 0 01-.21-.917c0-.057.01-.114.01-.172zm-25.69-7.375l-23.25.62a2.174 2.174 0 01-.83 1.4l9.78 18.939c.05 0 .1-.014.14-.014a2.123 2.123 0 011.02.262L99.1 78.273a2.2 2.2 0 01-.64-1.544 2.756 2.756 0 01.03-.293zM71.12 183.022l17.32 9.68a2.15 2.15 0 011.52-.79l1.44-16.76a2.2 2.2 0 01-1.31-.96l-18.81 7.53a2.71 2.71 0 01.04.4 2.115 2.115 0 01-.2.898zm93.47-14.86l-17.91-12.45a2.194 2.194 0 01-1.54 1.02l-3.9 23.36a2.3 2.3 0 01.88.63l22.37-11.03a2.118 2.118 0 01-.1-.62 2.285 2.285 0 01.2-.912zm3.18-26.96l-18.61-13.95a2.345 2.345 0 01-.91.48l-2.76 24.81a2.078 2.078 0 011.07.76l21.14-10.89a2.734 2.734 0 01-.06-.5 2.126 2.126 0 01.13-.712zm-18.16-14.52l18.52 13.88a2.149 2.149 0 011.68-.81h.01l3.26-22.241a2.185 2.185 0 01-1.17-.974l-22.05 8.7a2.579 2.579 0 01.04.39 2.131 2.131 0 01-.29 1.053zm-22.05-15.652l18.98 12.762a2.243 2.243 0 01.96-.33l1.83-23.552a2.111 2.111 0 01-1.51-.831l-20.06 10.634a1.993 1.993 0 01.04.347 2.116 2.116 0 01-.24.968zm18.68 16.192l-22.46 8.61a1.526 1.526 0 01.03.3 2.18 2.18 0 01-.43 1.3l19.63 15.95a2.164 2.164 0 011.77-.95l2.74-24.65a2.236 2.236 0 01-1.28-.562zm-31.66 37l-17.8-15.73a2.129 2.129 0 01-1.56.68l-2.98 21.76a2.112 2.112 0 011.59 1.07l20.65-6.31a2.341 2.341 0 01-.09-.59 2.172 2.172 0 01.19-.882zm5.26-29.29l-17.8-13.582a2.179 2.179 0 01-1.05.276 2.052 2.052 0 01-.33-.034l-4.68 23.37a2.278 2.278 0 01.74.47l22.84-8.76a1.905 1.905 0 01-.08-.54 2.123 2.123 0 01.36-1.202zm-22.69 11.11a2.182 2.182 0 01.23.95 2.115 2.115 0 01-.2.9l17.81 15.72a2.2 2.2 0 011.58-.68 2.315 2.315 0 01.46.05l4.02-24.76a2.223 2.223 0 01-1.2-.88zm-1.88-1.22l4.69-23.463a2.2 2.2 0 01-.83-.8l-21.68 5.272a.777.777 0 01.02.16 2.123 2.123 0 01-.82 1.67l16.7 18.24a2.136 2.136 0 011.86-1.09c.02-.001.04.009.06.009zm-17.98-19.7l21.57-5.242a1.955 1.955 0 01-.05-.421 2.239 2.239 0 01.11-.637l-13.5-17.4a2.19 2.19 0 01-.94.282l-7.68 22.73a2.228 2.228 0 01.49.686zm22-7a2.122 2.122 0 012.3-.736l4.93-18.087a2.194 2.194 0 01-1.08-1.3L86.5 99.721a2.2 2.2 0 01-.52 1.244zm2.96-.423a2.117 2.117 0 01.78 1.02l20.59-7.869a2.076 2.076 0 01-.16-.788 2.191 2.191 0 01.23-.956L109.24 98.7a2.174 2.174 0 01-1.72.853 2.325 2.325 0 01-.31-.031zm.92 1.743v.019a2.136 2.136 0 01-.55 1.427l17.72 13.516a2.162 2.162 0 011.31-.45 3.163 3.163 0 01.32.03l3.38-21.784a2.155 2.155 0 01-1.35-.722zm18.61 18.858l-4.06 24.96a2.225 2.225 0 01.88 1.08l24.08-9.38a2.206 2.206 0 01-.04-.37 2.247 2.247 0 01.07-.52l-19.85-16.13a2.24 2.24 0 01-1.08.36zm22.62 18.41a2.114 2.114 0 01-1.47-1.07l-24.18 9.42v.04a2.2 2.2 0 01-.15.77l20.21 14.84a2.162 2.162 0 011.65-.77c.02 0 .05.01.07.01zm-26.17 9.78a2.168 2.168 0 01-1.21.73l-2.75 21.13a2.185 2.185 0 011.16.81l22.86-7.11a2.193 2.193 0 01.14-.72zm-1.94.75a2.195 2.195 0 01-1.5-.89l-20.7 6.33a2.328 2.328 0 01.04.38 2.086 2.086 0 01-.28 1.03l18.58 14.56a2.271 2.271 0 011.12-.38zm-22.88 7.42a2.189 2.189 0 01-1.28.55l-1.45 16.76a2.179 2.179 0 011.52 1.44l19.32-3.27a2.226 2.226 0 01.39-.98zm-3.08-3.04a2.141 2.141 0 011.18-.68l3-21.89a2.193 2.193 0 01-1.4-1.54l-21.33 7.51a2.137 2.137 0 01.27 1.03 2.079 2.079 0 01-.27 1.03zm2.74-24.86a.2.2 0 01.01-.08L76 128.02a1.9 1.9 0 01-.63.12l-5.15 25.78a2.214 2.214 0 011.08.51zm-16.89-22.75l7.56-22.386a2.152 2.152 0 01-1.45-1.362l-21.52 3.635a2.18 2.18 0 01.04.364 2.152 2.152 0 01-.79 1.662l14.11 18.227a2.193 2.193 0 012.05-.14zm-15.66-20.8l21.63-3.656a2.166 2.166 0 011.31-1.984l-9.69-18.773a1.969 1.969 0 01-1.34 0l-12.62 23.655a2.1 2.1 0 01.71.753zm25.41-5.123a2.087 2.087 0 01.5.911l18.92-1.72a2.177 2.177 0 011.35-1.923l-5.6-16.493a2.176 2.176 0 01-.46.05 2.114 2.114 0 01-.94-.223zm23.69-1.281a2.12 2.12 0 01.08.566 2.206 2.206 0 01-.12.683l14.53 10.462a2.2 2.2 0 011.22-.591l.61-21.8a2.193 2.193 0 01-1.16-.623zm13.05 37.419a2.16 2.16 0 01.9.92l22.22-8.53a2.108 2.108 0 01.21-2.31l-18.87-12.685a2.107 2.107 0 01-1.05.561zm4.85-25.2l19.96-10.582a2 2 0 01-.13-.691 2.235 2.235 0 01.27-1.03l-19.79-11.135a2.2 2.2 0 01-1.17.554l-.61 21.8a2.143 2.143 0 011.47 1.078zm20.7 14.481a2.18 2.18 0 011.39 1.05l22.05-8.695a2.376 2.376 0 01-.04-.38 2.135 2.135 0 01.35-1.17l-20.62-15.393a2.165 2.165 0 01-1.29.938zm3.06-27.019l21.47-10.268a2 2 0 01-.04-.426 2.076 2.076 0 01.08-.56l-20.95-13.554a2.129 2.129 0 01-1.28.675l-.62 23.26a2.179 2.179 0 011.34.867zm.31.654a2.074 2.074 0 01.1.611 1.868 1.868 0 01-.06.475l20.84 15.551a2.172 2.172 0 011.33-.464h.05l.62-25.4a2.174 2.174 0 01-1.45-1.025zm22.21 20.507h-.01l-3.26 22.239a2.165 2.165 0 01.98.7l19.69-6.85a2.208 2.208 0 01.51-1.19l-16.41-15.5a2.163 2.163 0 01-1.5.595zm1.81-3.381l20.29-8.607a1.587 1.587 0 01-.03-.309 2.028 2.028 0 01.03-.351l-19.66-17.516a2.188 2.188 0 01-1.05.446l-.62 25.528a2.193 2.193 0 011.04.803zm.3.662a2.5 2.5 0 01.08.552 2.167 2.167 0 01-.25.982l16.54 15.623a2.08 2.08 0 01.99-.29l3.98-24.435a2.209 2.209 0 01-1.13-1.01zm18.68 20.8a2.133 2.133 0 01-1.24.4c-.03 0-.06-.01-.1-.01l-6.08 18.25a2.192 2.192 0 011.41 1.57l16.46-.87a2.179 2.179 0 01.74-1.09zm-2.05.24a2.225 2.225 0 01-1.29-1.48l-19.39 6.75a2.157 2.157 0 01.12.68 2.129 2.129 0 01-.34 1.15l13.29 11.82a2.18 2.18 0 011.52-.64zm-23.34 8.02a2.129 2.129 0 01-1.21-.9l-21.1 10.86a2.1 2.1 0 01.07 1.08l18.04 12.54a2.137 2.137 0 011.45-.66zm-4.39 26.36l-22.32 11a2.3 2.3 0 01.15.78 2.076 2.076 0 01-.11.66l20.7 10.81a2.185 2.185 0 011.25-.59l1.29-21.91a2.089 2.089 0 01-.96-.759zm-25.13 13.81a2.144 2.144 0 01-1.29-1.37l-22.64 7.04a2.077 2.077 0 01-.07 1.46l17.56 14.58a2.069 2.069 0 011.95-.49zm-24.39 7.74a2.147 2.147 0 01-1.62.73c-.04 0-.09-.01-.13-.01l-6.4 18.33a2.122 2.122 0 01.37.96l25.03-4.69a2.093 2.093 0 01.25-.79zm-2.46.56a2.18 2.18 0 01-1.3-1.58l-19.22 3.26a2.212 2.212 0 01-.35 1.13l12.4 15a2.146 2.146 0 012.21.12zm-24.33 3.06a2.184 2.184 0 01-.55-1.44 2.069 2.069 0 01.14-.74l-17.37-9.71a2.193 2.193 0 01-.93.58l6.45 21.11c.04 0 .09-.01.13-.01a2.132 2.132 0 011.47.58zm-17.48-14.47l18.8-7.52a2.236 2.236 0 01-.05-.46 2.312 2.312 0 01.16-.83l-18.6-14.58a2.151 2.151 0 01-1.17.54l-.61 21.79a2.173 2.173 0 011.47 1.051zm3.63-52.99a2.183 2.183 0 01-1.33-1.14l-21.58 6.08a1.942 1.942 0 01.02.24 2.195 2.195 0 01-.63 1.54l17.55 19.47a2.242 2.242 0 01.8-.32zm-6.84 28.67l-19.09 6.17a2.042 2.042 0 01.14.75 2.1 2.1 0 01-.27 1.02l19.34 15.65a2.081 2.081 0 01.89-.33l.61-21.8a2.165 2.165 0 01-1.62-1.469zm-.11-.72a2.151 2.151 0 01.45-1.27l-17.62-19.54a2.559 2.559 0 01-.79.21l-2.9 26.09a2.094 2.094 0 011.5.76zm-16.87-24.55a2.034 2.034 0 01.71.85l21.59-6.09a1.635 1.635 0 01-.02-.22 2.117 2.117 0 01.48-1.35l-14.2-18.351a2.24 2.24 0 01-.75.139 2.081 2.081 0 01-.59-.093zm7.69-29.344c.04 0 .08-.012.12-.012a2.061 2.061 0 01.5.065l12.65-23.711a2.1 2.1 0 01-.68-.888l-23.73 4.007a1.879 1.879 0 01.02.238 2.153 2.153 0 01-.72 1.605zM47.18 80.874l23.77-4.013c0-.043-.01-.083-.01-.125a2.174 2.174 0 011.83-2.147l-8.31-18.863h-.03a2.144 2.144 0 01-.7-.124l-16.8 24.875a2.051 2.051 0 01.25.388zm26.39-6.265c.06.013.12.036.18.054l17.57-19.416a2.141 2.141 0 01-.82-1.684H66.61a2.16 2.16 0 01-1.42 2.022zm-7.1-21.77h24.16a2.17 2.17 0 01.94-1.14l-3.48-17.705c-.04 0-.07.011-.11.011a2.144 2.144 0 01-1.59-.7L65.5 51.695a2.13 2.13 0 01.97 1.135zM74.41 75a2.131 2.131 0 01.82 1.334l23.5-.627a2.152 2.152 0 01.96-.934l-7.31-19.079a2.147 2.147 0 01-.41-.1zm27.91.353a2.175 2.175 0 01.49 1.292l21.55 6.463a2.178 2.178 0 011.19-1.145l-4.54-21.2a2.208 2.208 0 01-1.14-.5zm23.94 6.463c.03 0 .06-.009.09-.009a2.174 2.174 0 011.59.7l20.28-11.548a2.206 2.206 0 01-.13-.73l-25.05-10.332a2.185 2.185 0 01-1.3.845zm23.76-13.745a1.785 1.785 0 01.23-.024 2.135 2.135 0 011.67.8l19.09-8.811a2.226 2.226 0 01-.12-.687 2.165 2.165 0 01.28-1.042l-22.16-12.8a2.188 2.188 0 01-1.09.7zm21.34-7.393l-19.08 8.8a1.99 1.99 0 01.14.732 2.05 2.05 0 01-.18.856l20.85 13.492a2.213 2.213 0 01.97-.777l-1.23-22.29a2.144 2.144 0 01-1.47-.815zm3.42 22.955c.04 0 .07-.011.11-.011a2.178 2.178 0 011.73.858l18.17-7.328c0-.02-.01-.038-.01-.058a2.116 2.116 0 01.35-1.162L174.57 60.9a2.164 2.164 0 01-1.02.56zm20.16-5.759l-17.99 7.251a2.1 2.1 0 01.12.664 2.18 2.18 0 01-.34 1.158l19.44 17.316a2.156 2.156 0 011.41-1.029l-.89-24a2.155 2.155 0 01-1.75-1.362zm3.36 25.331a2.174 2.174 0 011.38.716l17.67-9.14a2 2 0 01-.11-.649 2.225 2.225 0 01.16-.819l-19.12-14.5a2.245 2.245 0 01-.87.4zm1.77 1.331a2.183 2.183 0 01.16.811 2.14 2.14 0 01-.17.84l15.24 19.135a2.152 2.152 0 01.5-.07 2.518 2.518 0 01.55.08l2.56-29.1a2.181 2.181 0 01-1.23-.806zm15.51 25.036a2.174 2.174 0 01-1.49-.84l-18.74 4.38a2.33 2.33 0 01.17.84 2.133 2.133 0 01-.4 1.24l11.3 18.44a2.272 2.272 0 01.69-.12 2.123 2.123 0 01.75.14zm-7.78 28.15a2.272 2.272 0 01-.69.12 2.154 2.154 0 01-.8-.16l-16.39 19.43a2.07 2.07 0 01.51 1.2l18.64 2.33a2.163 2.163 0 011.72-1.4zm-2.11-.42a2.172 2.172 0 01-.74-1.51l-16.34.86a2.144 2.144 0 01-1.96 1.9l1.78 17.81a2.147 2.147 0 01.94.28zm-19.78 1.19a2.085 2.085 0 01-1.04-.64l-16.31 10.38a2.136 2.136 0 01.17.84 2.2 2.2 0 01-.26 1.01l18.17 7.03a2.1 2.1 0 011.07-.68zm.35 19.25l-18.25-7.06a2.139 2.139 0 01-1.45.57c-.03 0-.05-.01-.07-.01l-1.28 21.78a2.246 2.246 0 011.09.62l20.22-13.88a2.141 2.141 0 01-.4-1.25 2.191 2.191 0 01.14-.772zm-22.34 19.43a2.156 2.156 0 01-1.02-.89l-26.17 10.53a2.063 2.063 0 01.11.65 2.282 2.282 0 01-.02.27l19.79 11.7a2.206 2.206 0 012.48-.55zm-30.65 11.93a2.118 2.118 0 01-.7-1.16l-25.09 4.7a2.236 2.236 0 01-.39.84l18.19 14.8a2.138 2.138 0 011.43-.55 1.87 1.87 0 01.34.03zm-26.72 4.88a2.123 2.123 0 01-1.2.36 2.146 2.146 0 01-.8-.15l-10.1 13.37a2.227 2.227 0 01.64.95l29.6.64a2.018 2.018 0 01.14-.3zm-2.62-.17a2.205 2.205 0 01-.73-1.34l-25.05-3.76a2.072 2.072 0 01-.49.49l14.52 17.99a2.186 2.186 0 01.85-.17 2.154 2.154 0 01.8.16zm-28.4-8.34l-6.47-21.17a2.157 2.157 0 01-1.62-.83l-15 8.88a2.477 2.477 0 01.03.27 2.082 2.082 0 01-.36 1.18l22.33 12.67a2.167 2.167 0 011.09-1.002zm-23.31-13.83l14.87-8.8a2.138 2.138 0 01-.13-.72 2.166 2.166 0 01.44-1.3l-19.25-15.59a2.154 2.154 0 01-1.16.54l3.01 24.71c.1-.01.2-.03.3-.03a2.165 2.165 0 011.92 1.188zm-5.96-25.88a2.182 2.182 0 01-1.67-1.55l-16.51 5.2a2.082 2.082 0 01.14.75 2.191 2.191 0 01-.23.96L49 190.902a1.528 1.528 0 01.3-.19zm-1.74-2.29a2.13 2.13 0 01.68-1.42l-14.77-19.38a2.2 2.2 0 01-1.14.33 2.85 2.85 0 01-.29-.03l-2.62 25.06a2.2 2.2 0 011.32.74zm-16.23-20.72a2.192 2.192 0 01-1.11-1.41l-14.19 1.18c0 .04.01.08.01.12a2.154 2.154 0 01-.87 1.73l12.53 24.13a2.156 2.156 0 01.99-.46zm-15.46-.94l14.3-1.19a2.126 2.126 0 01.62-1.32l-9.94-19.211-5.75 20.771a2.117 2.117 0 01.77.948zm16.44-3.15h.02a2.166 2.166 0 011.82.98l16.33-6.01a2.581 2.581 0 01-.04-.4 2.153 2.153 0 01.5-1.37l-11.95-18.376a2.149 2.149 0 01-.86.176c-.04 0-.08-.009-.12-.011zm6.95-29.014a2.353 2.353 0 01.47.383l19.8-5.878a2.151 2.151 0 011.28-1.872l-11.7-18.475a2 2 0 01-1.18.134zm8.95-30c.02 0 .04-.006.06-.006a2.179 2.179 0 011.16.338l16.7-24.725a2.119 2.119 0 01-.74-1.061l-22.61 5.8a2.233 2.233 0 01.05.451 2.165 2.165 0 01-1.14 1.909zm-5.7-20.326l22.78-5.851a2.175 2.175 0 011.26-1.876L60.3 36.143a1.813 1.813 0 01-.22.023 2.166 2.166 0 01-1.5-.607l-19.89 23a2.15 2.15 0 01.78.76zm24.74-7.911a2.046 2.046 0 01.22-.022 2.215 2.215 0 01.28.029l21.28-18.735a2.027 2.027 0 01-.18-.851c0-.039.01-.075.01-.114l-23.58 2.359A2.182 2.182 0 0161 35.95zm-2.07-18.053l23.85-2.384a2.172 2.172 0 011.08-1.1l-3.14-9.664a2.058 2.058 0 01-2.14-.991L61.62 32.461a2.168 2.168 0 01.52.894zm32.27 18.924a2.221 2.221 0 01.39.943l24.46 4.587a2.172 2.172 0 011.28-1.221l-3.65-20.089a2.147 2.147 0 01-1.37-.917zm26.85 4.175h.02a2.165 2.165 0 011.78.924l22.13-12.909c-.01-.112-.03-.224-.03-.34a2.036 2.036 0 01.18-.853l-26-8.145a2.171 2.171 0 01-1.71 1.381zm-1.78-22.092v.052l26.28 8.232a2.146 2.146 0 011.58-.686 2.188 2.188 0 011.58.678l21.35-7.014a1.966 1.966 0 01-.08-.544.163.163 0 01.01-.069l-25.29-11.82a2.151 2.151 0 01-3.3-.271l-22.33 10.541a2.1 2.1 0 01.2.898zm55.72 24.688a2.93 2.93 0 01.03.3 2.073 2.073 0 01-.24.958l20.63 15.087a2.21 2.21 0 01.92-.428l-3.93-19.99a2.143 2.143 0 01-1.3-.791zm22.08 15.907a2.169 2.169 0 011.13.525l13.2-8.424a2.082 2.082 0 01-.17-.828 2.143 2.143 0 01.74-1.61l-17.73-10.174a2.181 2.181 0 01-1.1.535zM212 67.669l-13.13 8.385a2.1 2.1 0 01-.09 2.236l19.01 14.412a2.464 2.464 0 01.57-.451l-4.29-23.9a2.144 2.144 0 01-.45.046 2.178 2.178 0 01-1.62-.731zm7.63 28.61l-2.58 29.374a2.187 2.187 0 01.85 1.24l16.43-6.237a2.363 2.363 0 01-.05-.464 2.158 2.158 0 01.76-1.637l-14.92-22.379a2.191 2.191 0 01-.49.1zm14.98 25.047l-16.66 6.317a2.192 2.192 0 01-.54 1.23l9.83 21.81a2.093 2.093 0 01.51-.07 2.283 2.283 0 01.7.12l7.28-28.5a2.125 2.125 0 01-1.12-.91zm-5.51 29.777a2.191 2.191 0 01.69.97l13.32-4.63a2.312 2.312 0 01-.16-.83 2.167 2.167 0 011.04-1.85l-6.74-22.562a2.185 2.185 0 01-.81.158zm3.88 24.95l-4.26-21.32a2.291 2.291 0 01-.72.21l-14.9 25.59a1.629 1.629 0 01.11.31l18.2-2.43a2.4 2.4 0 01-.03-.28 2.157 2.157 0 011.6-2.083zm-.89 3.67a2.232 2.232 0 01-.46-.6l-18.36 2.44a2.172 2.172 0 01-1.48 1.89l-.33 23.77zm-20.56-.47a2.245 2.245 0 011.12.61l14.54-24.97a2.2 2.2 0 01-1.48-1.38l-16.46 1.92a1.967 1.967 0 01.03.24 2.167 2.167 0 01-.8 1.67zm-21.44 25.62l20.64 2.51.33-23.81a2.223 2.223 0 01-1.02-.28l-20.5 20.19a2.156 2.156 0 01.55 1.387zm-1.13-1.84l20.52-20.2a2.173 2.173 0 01-.56-1.44c0-.01.01-.03.01-.04l-18.55-2.32a2.165 2.165 0 01-1.45 1.54l-.94 22.19a2.1 2.1 0 01.97.267zm-1.7-.17l.94-22.19a2.2 2.2 0 01-1.16-.39l-20.33 13.96a2.324 2.324 0 01.2.91 2.215 2.215 0 01-.26 1.03l19.35 7.74a2.175 2.175 0 011.26-1.063zm-7.04 23.72a2.2 2.2 0 011.53-.64l4.82-19.3a2.125 2.125 0 01-.52-.6l-25.68 14.44a2.579 2.579 0 01.04.39c0 .05-.01.09-.01.13zm-28.1 12.77l27.47-11.25a2.038 2.038 0 01.2-.89l-19.55-5.5a2.177 2.177 0 01-2.01 1.33 1.366 1.366 0 01-.19-.02l-6.74 15.53a2.171 2.171 0 01.82.797zm-1.5-1.05l6.71-15.46a2.16 2.16 0 01-.99-.9l-27.53 7.43a2.347 2.347 0 01.07.54 2.579 2.579 0 01-.04.39l19.82 8.67a2.169 2.169 0 011.59-.71 2.206 2.206 0 01.37.037zm-7.06 14.02l5.97-9.85a2.167 2.167 0 01-1.35-1.43l-29.79 5.22a1.872 1.872 0 01-.04.42zm-25.28-6.77l29.82-5.23a2.043 2.043 0 01.16-.74l-19.67-8.6a2.154 2.154 0 01-1.88 1.11 2.052 2.052 0 01-.78-.16l-7.88 13.13a2.193 2.193 0 01.23.487zm-3.39-1.03a2.157 2.157 0 012.65-.01l7.77-12.95a2.187 2.187 0 01-.76-1.65v-.04l-29.34-.64a2.411 2.411 0 01-.12.67zm-33.84-2.13l33.21 2.9c.04-.08.08-.16.13-.24l-19.65-14.51a2.161 2.161 0 01-1.71.84 2.51 2.51 0 01-.55-.07l-11.54 10.56a2.652 2.652 0 01.11.517zm-2.14-1.96a2.153 2.153 0 011.66.79l11.2-10.24a2.17 2.17 0 01-.92-1.78 2.1 2.1 0 01.08-.56l-28.33-7.64a2.971 2.971 0 01-.28.34zm-18.1-22.83a2.108 2.108 0 011.46.58l12.27-9.54a2.154 2.154 0 01-.35-1.18 2.66 2.66 0 01.03-.28l-22.62-12.84a2.022 2.022 0 01-.58.31l9.5 22.97a2.642 2.642 0 01.29-.023zm-1.61.73a2.439 2.439 0 01.62-.49l-9.53-23.05a2.181 2.181 0 01-1.49-.61l-13 5.66c0 .01.01.02.01.03a2.14 2.14 0 01-.76 1.62zm-23.54-19.22l12.71-5.53a2.069 2.069 0 01-.24-.96 2.155 2.155 0 01.37-1.2l-20.94-19.71a2.05 2.05 0 01-.81.5l6.46 25.55a2.024 2.024 0 01.43-.05 2.153 2.153 0 012.02 1.397zm-9.56 2.89l15.36 21.16-7.81-21.14h-.01a2.173 2.173 0 01-1.84-1.03zm-18.61-29.52l24.43 26.09a1.98 1.98 0 01.61-.54l-6.5-25.7a2.168 2.168 0 01-2.14-1.89l-11.26 2.47.01.13-.36.02-.34.12-.07-.17v.05zm5.11-.3l11.32-2.49a2.128 2.128 0 01.23-.59l-12.66-24.4a1.519 1.519 0 01-.2.06zm-1.3-31.65l.09.03 5.89-21.257a2.176 2.176 0 01-1.13-1.031l-1.16.426-4.7 3.683a2.162 2.162 0 01-.73 3.4zm-4.59-28.68l-4.95 16.3 4.8-3.76a2.273 2.273 0 01-.09-.59 2.178 2.178 0 011.87-2.145l-1.17-9.9a2.152 2.152 0 01-.46.092zm2.36 9.817a2.209 2.209 0 01.65.245l4.87-3.819.22.285-.12-.34 1.24-.458a1.526 1.526 0 01-.03-.3 2.162 2.162 0 014-1.158l13.03-4.8a2.168 2.168 0 011.34-1.832L24.24 92.471a2.115 2.115 0 01-1.46.583 2.152 2.152 0 01-1.12-.322L8.05 108.191a2.149 2.149 0 01-.19 3.191zm6.45-45.306c-.07 0-.14-.015-.21-.022L7.86 107.31l13.25-15.06a2.169 2.169 0 01.5-3.212l-5.44-12.785a2.131 2.131 0 01-.65.108zm20.42-14.551L17.58 73.554a2.281 2.281 0 01.11.643 2.171 2.171 0 01-.87 1.726l5.46 12.83a2.112 2.112 0 01.5-.064 2.162 2.162 0 011.73.876l18.59-7.381a2.327 2.327 0 01-.03-.376 2.158 2.158 0 011.38-2.014l-6.49-17.2a2.06 2.06 0 01-.34.035 2.156 2.156 0 01-1.68-.819zm2.26-22.68a2.171 2.171 0 01-1.55 1.342l.9 17.8c.03 0 .05-.007.07-.007a2.176 2.176 0 01.34.034l20.19-23.346a1.942 1.942 0 01-.19-.527zm10.04-10.288l9.87 4.23a2.183 2.183 0 011.95-1.268l5.36-13.4zm18.17-10.962l-5.62 14.052a1.368 1.368 0 01.19.076L81.5 18.536a2.355 2.355 0 01-.05-.464 2.172 2.172 0 013.56-1.666L98.95 5.135zM99.96 5.248l-14.4 11.646L109 15.627a2.286 2.286 0 01.14-.588zm11.18 12.824a2.161 2.161 0 01-1.77-.925l-19.81 13.21a2.135 2.135 0 01.52.957l25.26 2.156a2.28 2.28 0 01.75-.9l-4.74-14.515c-.07-.001-.14.014-.21.014zm.91-.208l4.71 14.4a2.08 2.08 0 012.11.59l22.43-10.589a1.945 1.945 0 01-.09-.593v-.062l-28.06-4.933a2.174 2.174 0 01-1.1 1.184zm25.17-9.571a2.169 2.169 0 01-2.1-1.679l-21.9 8.7a2.183 2.183 0 01.08.576v.078l28.05 4.932a2.2 2.2 0 011.14-1.2l-5.11-11.422c-.05 0-.1.012-.16.012zm2.05-1.488a2.2 2.2 0 01-1.17 1.3l5.1 11.421c.06 0 .11-.017.17-.017a2.164 2.164 0 012.09 1.611l24.39-2.409a2.307 2.307 0 01.19-.52zm30.57 12.633l-24.32 2.4a2.094 2.094 0 01-.19.749l25.01 11.695a2.184 2.184 0 011.28-1.232V21.283a2.165 2.165 0 01-1.78-1.848zm3.46 1.418a2.122 2.122 0 01-.96.429v11.632h.02a2.165 2.165 0 012.16 2.167c0 .049-.01.1-.01.144l22.51 2.22a2.245 2.245 0 01.19-.233zm23.3 17.856a1.813 1.813 0 01.09-.57l-22.34-2.2a2.019 2.019 0 01-.32.5l17.26 15.064a2.161 2.161 0 011.71-.847 2.119 2.119 0 01.76.147l3.51-10.53a2.164 2.164 0 01-.67-1.567zm2.18 2.167a2.186 2.186 0 01-.88-.187l-3.5 10.5a2.182 2.182 0 01.76 1.649 2.125 2.125 0 01-.27 1.033l17.65 10.125L199.63 40.7a2.153 2.153 0 01-.85.176zm3.09-13l-2.16 8.883a2.154 2.154 0 011.25 1.95 2.265 2.265 0 01-.04.372l21.3 12.962a2.039 2.039 0 01.65-.456zm21.96 27.838c-.02 0-.04.006-.06.006a2.137 2.137 0 01-1.3-.444l-7.01 9.8a2.074 2.074 0 01.34 1.151 2.252 2.252 0 01-.12.691l18.81 17.216zm11.27 32.49a2.148 2.148 0 01-1.28-1.04l-12.33 6.3a2.4 2.4 0 01.11.663 2.145 2.145 0 01-.84 1.7l14.9 22.346a2.14 2.14 0 01.68-.142zm1.13.039a2.288 2.288 0 01-.4.054l1.24 29.826a2.2 2.2 0 011.18.866l9.6-5.6a2.013 2.013 0 01-.16-.813 2.1 2.1 0 01.49-1.357zm12.65 26.254a2.13 2.13 0 01-.65-.5l-9.69 5.655a2.32 2.32 0 01.07.531 2.134 2.134 0 01-.73 1.61l6.78 22.681a2.416 2.416 0 01.47-.05h.01z" fill="#596c76" fill-rule="evenodd"/></svg>